<?xml version="1.0" encoding="UTF-8"?>
<svg width="211px" height="17px" viewBox="0 0 211 17" version="1.1" xmlns="http://www.w3.org/2000/svg" xmlns:xlink="http://www.w3.org/1999/xlink">
    <!-- Generator: Sketch 44.1 (41455) - http://www.bohemiancoding.com/sketch -->
    <title>WRI-monoline</title>
    <desc>Created with Sketch.</desc>
    <defs></defs>
    <g id="Materials" stroke="none" stroke-width="1" fill="none" fill-rule="evenodd">
        <g id="topbar" transform="translate(-1030.000000, -9.000000)">
            <g id="WRI-monoline">
                <g transform="translate(1030.000000, 9.000000)">
                    <path d="M2.37574399,11.1688583 L3.44814605,12.2164833 L2.47870619,13.1642333 L1.40557904,12.1159 L2.37574399,11.1688583 Z M8.63490309,0.1298375 L8.6755079,0.169504167 L9.70730515,1.17817083 L11.0102845,2.4503375 L9.93715739,3.49867083 L8.63490309,2.2250875 L4.8108,5.9608375 L3.73839794,4.9132125 L8.63490309,0.1298375 Z M0,8.5646 L2.37610653,6.2441 L3.44850859,7.29243333 L2.14552921,8.5646 L5.96890722,12.30035 L4.89650515,13.347975 L1.07312715,9.61293333 L0.0413298969,8.604975 L0,8.5646 Z M13.8208625,9.8376875 L15.1238419,8.5648125 L11.3004639,4.82977083 L12.372866,3.7814375 L16.196244,7.5171875 L17.2287663,8.52514583 L17.2693711,8.5648125 L14.8932646,10.8853125 L13.8208625,9.8376875 Z M8.63490309,14.9039 L12.4582811,11.1688583 L13.5314082,12.2164833 L8.63490309,16.9998583 L8.5935732,16.9594833 L7.56177595,15.9522333 L6.25879656,14.67865 L7.33192371,13.6317333 L8.63490309,14.9039 Z M14.8936271,5.9608375 L13.8212251,4.9132125 L14.7906649,3.9654625 L15.8637921,5.01379583 L14.8936271,5.9608375 Z M12.3729385,13.6312375 L13.3423784,14.5789875 L12.2699763,15.6266125 L11.3005364,14.6788625 L12.3729385,13.6312375 Z M5.96905223,2.45047917 L4.89665017,3.49810417 L3.92648522,2.5510625 L4.99961237,1.5034375 L5.96905223,2.45047917 Z M7.41697629,11.1688583 L8.49010344,12.2164833 L4.99953986,15.6264 L3.92641271,14.578775 L7.41697629,11.1688583 Z M9.85232234,10.8856667 L8.77992027,9.83804167 L12.4582811,6.24395833 L13.5306832,7.29158333 L9.85232234,10.8856667 Z M9.85232234,5.9608375 L8.77992027,4.9132125 L12.2697588,1.50329583 L13.3428859,2.55092083 L9.85232234,5.9608375 Z M7.41697629,6.24402917 L8.49010344,7.2923625 L4.81101753,10.8857375 L3.73861546,9.83740417 L7.41697629,6.24402917 Z M7.33170619,8.70647917 L11.010067,12.2998542 L9.93766495,13.3481875 L6.25930412,9.75410417 L7.33170619,8.70647917 Z M5.96905223,7.37530833 L4.89665017,8.42293333 L1.4060866,5.013725 L2.47848866,3.96539167 L5.96905223,7.37530833 Z M11.010357,7.37530833 L9.93795498,8.42293333 L6.25886907,4.82955833 L7.33199622,3.78193333 L11.010357,7.37530833 Z M12.3729385,8.70647917 L15.8635021,12.1163958 L14.7903749,13.1640208 L11.3005364,9.75410417 L12.3729385,8.70647917 Z" id="Combined-Shape" fill="#FAB72E"></path>
                    <path d="M23.130168,6.46694167 C23.0148794,6.11985833 22.9090168,5.8939 22.7748759,5.8004 C22.6690134,5.734525 22.4768656,5.7154 22.3898553,5.7154 C22.294144,5.7154 22.2368622,5.7069 22.2368622,5.63110833 C22.2368622,5.56523333 22.3129962,5.54681667 22.4478622,5.54681667 C22.9474464,5.54681667 23.476034,5.57444167 23.5630443,5.57444167 C23.6500546,5.57444167 24.0727797,5.54681667 24.6303708,5.54681667 C24.7652368,5.54681667 24.8326698,5.57444167 24.8326698,5.63110833 C24.8326698,5.7069 24.7550856,5.7154 24.6586491,5.7154 C24.5825151,5.7154 24.4860787,5.7154 24.4186457,5.75294167 C24.3323605,5.79119167 24.3127832,5.85706667 24.3127832,5.959775 C24.3127832,6.08231667 24.4092196,6.40106667 24.5245082,6.82394167 C24.6876526,7.44373333 25.5824086,10.2898167 25.754979,10.8161083 L25.7839825,10.8161083 L27.6489034,5.913025 C27.7453399,5.65023333 27.8127729,5.57444167 27.889632,5.57444167 C27.9954945,5.57444167 28.0433502,5.7154 28.1680649,6.01644167 L30.168577,10.7502333 L30.1968553,10.7502333 C30.3701509,10.120525 31.139467,7.64135833 31.4759069,6.542025 C31.5426148,6.32669167 31.5723433,6.12906667 31.5723433,5.99731667 C31.5723433,5.84715 31.485333,5.7154 31.1104636,5.7154 C31.0140271,5.7154 30.9465942,5.68706667 30.9465942,5.63110833 C30.9465942,5.56523333 31.0241784,5.54681667 31.1684704,5.54681667 C31.6774808,5.54681667 32.0820787,5.57444167 32.1683639,5.57444167 C32.2357969,5.57444167 32.6490959,5.54681667 32.9659584,5.54681667 C33.071821,5.54681667 33.139254,5.56523333 33.139254,5.6219 C33.139254,5.68706667 33.0906732,5.7154 33.004388,5.7154 C32.9079515,5.7154 32.7738107,5.72531667 32.6679481,5.76285833 C32.4373708,5.84715 32.3315082,6.22256667 32.1292093,6.75806667 C31.687632,7.94169167 30.6775873,10.9287333 30.2070065,12.3376083 C30.101144,12.666275 30.0532883,12.7789 29.9278485,12.7789 C29.831412,12.7789 29.7741302,12.666275 29.6298381,12.3184833 L27.6300512,7.60310833 L27.611199,7.60310833 C27.4284773,8.08265 26.1494258,11.416775 25.7361268,12.2809417 C25.5534052,12.666275 25.5048244,12.7789 25.3895357,12.7789 C25.2930993,12.7789 25.2553948,12.6754833 25.1683845,12.4311083 L23.130168,6.46694167 Z M33.8687629,9.09684167 C33.8687629,7.49034167 34.9549416,5.41563333 37.8400584,5.41563333 C40.2342921,5.41563333 41.7236186,6.77705 41.7236186,8.92825833 C41.7236186,11.0787583 40.1857113,12.7787583 37.743622,12.7787583 C34.9846701,12.7787583 33.8687629,10.7600083 33.8687629,9.09684167 Z M44.3329127,8.27014583 C44.3329127,6.84285417 44.3329127,6.57935417 44.3133354,6.27972917 C44.2944832,5.9595625 44.216899,5.81010417 43.9000364,5.74422917 C43.8224522,5.72510417 43.6593079,5.71589583 43.5244419,5.71589583 C43.4193045,5.71589583 43.3612976,5.69677083 43.3612976,5.63160417 C43.3612976,5.56572917 43.4280055,5.54660417 43.5730227,5.54660417 C44.0827581,5.54660417 44.6882048,5.57422917 44.8897787,5.57422917 C45.2167924,5.57422917 45.947679,5.54660417 46.2456893,5.54660417 C46.8511361,5.54660417 47.4957375,5.60327083 48.014899,5.9510625 C48.2839058,6.1295625 48.6689265,6.6076875 48.6689265,7.23739583 C48.6689265,7.93297917 48.3709162,8.5711875 47.399301,9.34114583 C48.2556275,10.3930208 48.9190811,11.2288542 49.4860983,11.8111042 C50.024112,12.3565208 50.4185588,12.4223958 50.5621258,12.4507292 C50.6687134,12.4691458 50.7549986,12.4783542 50.8318577,12.4783542 C50.9087168,12.4783542 50.9478715,12.5066875 50.9478715,12.5534375 C50.9478715,12.6285208 50.8804385,12.6476458 50.7651498,12.6476458 L49.8515416,12.6476458 C49.3128027,12.6476458 49.0727993,12.6001875 48.8226447,12.4691458 C48.4093457,12.2523958 48.0439024,11.8111042 47.5058887,11.0886042 C47.120143,10.5715208 46.6785656,9.9333125 46.5531258,9.79235417 C46.5052701,9.7356875 46.4479883,9.72647917 46.3805553,9.72647917 L45.5438062,9.7080625 C45.4959505,9.7080625 45.4669471,9.72647917 45.4669471,9.7824375 L45.4669471,9.9141875 C45.4669471,10.7875625 45.4669471,11.5298958 45.5148027,11.9237292 C45.5438062,12.1964375 45.6018131,12.4032708 45.8896722,12.4408125 C46.0339643,12.4592292 46.2456893,12.4783542 46.360978,12.4783542 C46.4378371,12.4783542 46.4769918,12.5066875 46.4769918,12.5534375 C46.4769918,12.6193125 46.4095588,12.6476458 46.2841189,12.6476458 C45.7265278,12.6476458 45.0152186,12.6193125 44.8709265,12.6193125 C44.6882048,12.6193125 44.0827581,12.6476458 43.6984625,12.6476458 C43.5730227,12.6476458 43.5055897,12.6193125 43.5055897,12.5534375 C43.5055897,12.5066875 43.5440192,12.4783542 43.6593079,12.4783542 C43.8036,12.4783542 43.9188887,12.4592292 44.0051739,12.4408125 C44.1980467,12.4032708 44.2459024,12.1964375 44.284332,11.9237292 C44.3329127,11.5298958 44.3329127,10.7875625 44.3329127,9.92339583 L44.3329127,8.27014583 Z M54.2755808,9.92346667 C54.2755808,11.1255083 54.2755808,11.7736333 54.4771546,11.942925 C54.6410241,12.0838833 54.8911787,12.1497583 55.6409175,12.1497583 C56.1506529,12.1497583 56.5247973,12.14055 56.7662509,11.8862583 C56.8815395,11.764425 56.9968282,11.5016333 57.0156804,11.3231333 C57.0251065,11.2388417 57.0446838,11.182175 57.121543,11.182175 C57.1889759,11.182175 57.1984021,11.228925 57.1984021,11.34155 C57.1984021,11.4449667 57.1309691,12.1497583 57.05411,12.4217583 C56.9968282,12.6285917 56.9482474,12.6753417 56.4486632,12.6753417 C55.7562062,12.6753417 55.2558969,12.6562167 54.8237457,12.6477167 C54.3908694,12.6285917 54.0450034,12.6193833 53.6512818,12.6193833 C53.5446942,12.6193833 53.3329691,12.6193833 53.1031168,12.6285917 C52.8812405,12.6285917 52.6310859,12.6477167 52.4396632,12.6477167 C52.3142234,12.6477167 52.2467904,12.6193833 52.2467904,12.5535083 C52.2467904,12.50605 52.2852199,12.478425 52.4005086,12.478425 C52.5448007,12.478425 52.6600893,12.4593 52.7470997,12.4408833 C52.9392474,12.4033417 52.9878282,12.1965083 53.0255326,11.9238 C53.0741134,11.5299667 53.0741134,10.7876333 53.0741134,9.92346667 L53.0741134,8.27021667 C53.0741134,6.84221667 53.0741134,6.579425 53.0545361,6.27909167 C53.0349588,5.95963333 52.9588247,5.80946667 52.6412371,5.7443 C52.564378,5.725175 52.4483643,5.71596667 52.3243746,5.71596667 C52.2177869,5.71596667 52.1605052,5.69684167 52.1605052,5.631675 C52.1605052,5.5658 52.2279381,5.546675 52.3722302,5.546675 C52.8239588,5.546675 53.4294055,5.5743 53.6889863,5.5743 C53.9202887,5.5743 54.6214467,5.546675 54.9963162,5.546675 C55.1319072,5.546675 55.1986151,5.5658 55.1986151,5.631675 C55.1986151,5.69684167 55.1406082,5.71596667 55.0253196,5.71596667 C54.9201821,5.71596667 54.7664639,5.725175 54.6511753,5.7443 C54.3908694,5.79105 54.3140103,5.95113333 54.294433,6.27909167 C54.2755808,6.579425 54.2755808,6.84221667 54.2755808,8.27021667 L54.2755808,9.92346667 Z M59.7704993,8.27021667 C59.7704993,6.84221667 59.7704993,6.579425 59.750922,6.27909167 C59.7320698,5.95963333 59.6552107,5.80946667 59.337623,5.7443 C59.2607639,5.725175 59.0968945,5.71596667 58.9627536,5.71596667 C58.8568911,5.71596667 58.7988842,5.69684167 58.7988842,5.631675 C58.7988842,5.5658 58.8663172,5.546675 59.0106093,5.546675 C59.5203447,5.546675 60.1257914,5.5743 60.3947983,5.5743 C60.6928086,5.5743 61.2989804,5.546675 61.8754237,5.546675 C63.0776162,5.546675 64.6829564,5.546675 65.7314306,6.617675 C66.2121625,7.106425 66.6638911,7.88559167 66.6638911,9.00263333 C66.6638911,10.1862583 66.1548808,11.088675 65.6154168,11.6234667 C65.1738395,12.0647583 64.173946,12.7320083 62.3953103,12.7320083 C62.0487192,12.7320083 61.6542725,12.703675 61.2888292,12.6753417 C60.924111,12.6477167 60.5876711,12.6193833 60.3469426,12.6193833 C60.2410801,12.6193833 60.029355,12.6193833 59.7995027,12.6285917 C59.5776265,12.6285917 59.3281969,12.6477167 59.1360491,12.6477167 C59.0106093,12.6477167 58.9431763,12.6193833 58.9431763,12.5535083 C58.9431763,12.50605 58.9816058,12.478425 59.0968945,12.478425 C59.2411866,12.478425 59.3572003,12.4593 59.4434856,12.4408833 C59.6356333,12.4033417 59.6842141,12.1965083 59.7219186,11.9238 C59.7704993,11.5299667 59.7704993,10.7876333 59.7704993,9.92346667 L59.7704993,8.27021667 Z M73.3837698,8.27014583 C73.3837698,6.84285417 73.3837698,6.57935417 73.3641924,6.27972917 C73.3446151,5.9595625 73.267756,5.81010417 72.9508935,5.74422917 C72.8733093,5.72510417 72.7101649,5.71589583 72.575299,5.71589583 C72.4701615,5.71589583 72.4121546,5.69677083 72.4121546,5.63160417 C72.4121546,5.56572917 72.4795876,5.54660417 72.6238797,5.54660417 C73.1336151,5.54660417 73.7390619,5.57422917 73.9406357,5.57422917 C74.2676495,5.57422917 74.9985361,5.54660417 75.2965464,5.54660417 C75.9019931,5.54660417 76.5465945,5.60327083 77.065756,5.9510625 C77.3347629,6.1295625 77.7197835,6.6076875 77.7197835,7.23739583 C77.7197835,7.93297917 77.4217732,8.5711875 76.4501581,9.34114583 C77.3064845,10.3930208 77.9699381,11.2288542 78.5369553,11.8111042 C79.0749691,12.3565208 79.4694158,12.4223958 79.6129828,12.4507292 C79.7195704,12.4691458 79.8058557,12.4783542 79.8827148,12.4783542 C79.9595739,12.4783542 79.9987285,12.5066875 79.9987285,12.5534375 C79.9987285,12.6285208 79.9312955,12.6476458 79.8160069,12.6476458 L78.9023986,12.6476458 C78.3636598,12.6476458 78.1236564,12.6001875 77.8735017,12.4691458 C77.4602027,12.2523958 77.0947595,11.8111042 76.5567457,11.0886042 C76.171,10.5715208 75.7294227,9.9333125 75.6039828,9.79235417 C75.5561271,9.7356875 75.4988454,9.72647917 75.4314124,9.72647917 L74.5946632,9.7080625 C74.5468076,9.7080625 74.5178041,9.72647917 74.5178041,9.7824375 L74.5178041,9.9141875 C74.5178041,10.7875625 74.5178041,11.5298958 74.5656598,11.9237292 C74.5946632,12.1964375 74.6526701,12.4032708 74.9405292,12.4408125 C75.0848213,12.4592292 75.2965464,12.4783542 75.4118351,12.4783542 C75.4886942,12.4783542 75.5278488,12.5066875 75.5278488,12.5534375 C75.5278488,12.6193125 75.4604158,12.6476458 75.3349759,12.6476458 C74.7773849,12.6476458 74.0660756,12.6193125 73.9217835,12.6193125 C73.7390619,12.6193125 73.1336151,12.6476458 72.7493196,12.6476458 C72.6238797,12.6476458 72.5564467,12.6193125 72.5564467,12.5534375 C72.5564467,12.5066875 72.5948763,12.4783542 72.7101649,12.4783542 C72.854457,12.4783542 72.9697457,12.4592292 73.0560309,12.4408125 C73.2489038,12.4032708 73.2967595,12.1964375 73.335189,11.9237292 C73.3837698,11.5298958 73.3837698,10.7875625 73.3837698,9.92339583 L73.3837698,8.27014583 Z M82.1248254,8.2702875 C82.1248254,6.8422875 82.1248254,6.57949583 82.1059732,6.2791625 C82.0863959,5.95970417 82.0095368,5.8095375 81.6919491,5.74437083 C81.61509,5.72524583 81.4512206,5.71532917 81.3170797,5.71532917 C81.2112172,5.71532917 81.1532103,5.6969125 81.1532103,5.6310375 C81.1532103,5.56587083 81.2206433,5.54674583 81.3649354,5.54674583 C81.6252412,5.54674583 81.9036742,5.55595417 82.1436777,5.55595417 C82.3938323,5.56587083 82.6149835,5.57437083 82.7491244,5.57437083 C83.0572859,5.57437083 84.9707876,5.57437083 85.1535093,5.56587083 C85.3362309,5.54674583 85.4899491,5.52832917 85.5668082,5.50920417 C85.6146639,5.49999583 85.6726708,5.4716625 85.7205265,5.4716625 C85.7683821,5.4716625 85.7785333,5.50920417 85.7785333,5.55595417 C85.7785333,5.62182917 85.7306777,5.73445417 85.7016742,6.1665375 C85.691523,6.26074583 85.6726708,6.67370417 85.6530935,6.78632917 C85.6429423,6.8337875 85.62409,6.88974583 85.556657,6.88974583 C85.4899491,6.88974583 85.4703718,6.8422875 85.4703718,6.75799583 C85.4703718,6.69212083 85.4609457,6.53274583 85.41309,6.42012083 C85.344932,6.25082917 85.2499457,6.13820417 84.7684887,6.08224583 C84.6053443,6.06312083 83.5952997,6.04399583 83.403877,6.04399583 C83.3552962,6.04399583 83.336444,6.07232917 83.336444,6.13820417 L83.336444,8.5146625 C83.336444,8.57982917 83.3458701,8.61807917 83.403877,8.61807917 C83.614877,8.61807917 84.720633,8.61807917 84.9417842,8.5996625 C85.1723615,8.57982917 85.3166536,8.55220417 85.4029388,8.45870417 C85.4703718,8.3829125 85.5088014,8.3361625 85.556657,8.3361625 C85.5958117,8.3361625 85.62409,8.3552875 85.62409,8.41124583 C85.62409,8.46720417 85.5856605,8.61807917 85.547956,9.0969125 C85.5378048,9.28532917 85.5088014,9.66074583 85.5088014,9.72662083 C85.5088014,9.80170417 85.5088014,9.90512083 85.4225162,9.90512083 C85.3550832,9.90512083 85.3362309,9.86757917 85.3362309,9.82012083 C85.3260797,9.72662083 85.3260797,9.60407917 85.2978014,9.48224583 C85.2499457,9.29382917 85.1150797,9.15357917 84.7590625,9.11532917 C84.5763409,9.0969125 83.6243031,9.08770417 83.3937258,9.08770417 C83.3458701,9.08770417 83.336444,9.12524583 83.336444,9.18120417 L83.336444,9.9235375 C83.336444,10.2429958 83.3262928,11.1071625 83.336444,11.3798708 C83.3552962,12.0279958 83.5090144,12.1682458 84.4900557,12.1682458 C84.7394852,12.1682458 85.1433581,12.1682458 85.3935127,12.0556208 C85.6429423,11.9422875 85.758956,11.7453708 85.8256639,11.3607458 C85.8459663,11.2573292 85.8648186,11.2197875 85.9322515,11.2197875 C86.0083856,11.2197875 86.0083856,11.2948708 86.0083856,11.3883708 C86.0083856,11.6051208 85.9322515,12.2433292 85.8843959,12.4310375 C85.8169629,12.6754125 85.7306777,12.6754125 85.3652344,12.6754125 C84.6437739,12.6754125 84.1144612,12.6562875 83.7018873,12.6477875 C83.2878632,12.6286625 82.9898529,12.6194542 82.7012687,12.6194542 C82.5954062,12.6194542 82.3836811,12.6194542 82.1538289,12.6286625 C81.9319526,12.6286625 81.682523,12.6477875 81.4903753,12.6477875 C81.3649354,12.6477875 81.2975024,12.6194542 81.2975024,12.5535792 C81.2975024,12.5061208 81.335932,12.4777875 81.4512206,12.4777875 C81.5955127,12.4777875 81.7115265,12.4593708 81.7978117,12.4409542 C81.9899595,12.4034125 82.0385402,12.1965792 82.0769698,11.9238708 C82.1248254,11.5300375 82.1248254,10.7877042 82.1248254,9.9235375 L82.1248254,8.2702875 Z M88.3106784,12.5348083 C88.1569601,12.4689333 88.1279567,12.4221833 88.1279567,12.21535 C88.1279567,11.6982667 88.1663863,11.1351417 88.1765375,10.984975 C88.1859636,10.8440167 88.2142419,10.7406 88.2918261,10.7406 C88.3781113,10.7406 88.3882625,10.8256 88.3882625,10.899975 C88.3882625,11.0225167 88.425967,11.2201417 88.4745478,11.3795167 C88.6862729,12.0743917 89.25329,12.327975 89.8493107,12.327975 C90.7150632,12.327975 91.1377883,11.7549333 91.1377883,11.256975 C91.1377883,10.7972667 90.9927711,10.3651833 90.1951766,9.7546 L89.7528742,9.416725 C88.6949739,8.60851667 88.3295306,7.95118333 88.3295306,7.19043333 C88.3295306,6.156975 89.2141354,5.41535 90.5511938,5.41535 C91.1754928,5.41535 91.5800907,5.50885 91.8302454,5.574725 C91.9165306,5.59385 91.9643863,5.621475 91.9643863,5.68735 C91.9643863,5.80989167 91.9252316,6.0826 91.9252316,6.81501667 C91.9252316,7.02114167 91.8969533,7.096225 91.8200942,7.096225 C91.7526612,7.096225 91.7236577,7.04026667 91.7236577,6.92764167 C91.7236577,6.84264167 91.6758021,6.552225 91.4735031,6.30714167 C91.3299361,6.12935 91.050778,5.84743333 90.425754,5.84743333 C89.7144447,5.84743333 89.2815684,6.25118333 89.2815684,6.81501667 C89.2815684,7.24639167 89.5034447,7.57576667 90.3010392,8.167225 L90.570046,8.36414167 C91.7338089,9.2191 92.1471079,9.867225 92.1471079,10.759725 C92.1471079,11.3044333 91.9353828,11.9525583 91.2429258,12.39385 C90.7621938,12.6948917 90.2241801,12.7791833 89.7144447,12.7791833 C89.1568536,12.7791833 88.7239773,12.7133083 88.3106784,12.5348083 Z M94.0558241,9.09684167 C94.0558241,7.49034167 95.1420027,5.41563333 98.0271196,5.41563333 C100.421353,5.41563333 101.91068,6.77705 101.91068,8.92825833 C101.91068,11.0787583 100.372773,12.7787583 97.9306832,12.7787583 C95.1717313,12.7787583 94.0558241,10.7600083 94.0558241,9.09684167 Z M104.238496,8.2702875 C104.238496,6.8422875 104.238496,6.57949583 104.219643,6.2791625 C104.200066,5.95970417 104.123207,5.8095375 103.805619,5.74437083 C103.72876,5.72524583 103.564891,5.71532917 103.43075,5.71532917 C103.324887,5.71532917 103.267605,5.6969125 103.267605,5.6310375 C103.267605,5.56587083 103.335038,5.54674583 103.478605,5.54674583 C103.988341,5.54674583 104.593788,5.57437083 104.883097,5.57437083 C105.113674,5.57437083 105.719121,5.54674583 106.065712,5.54674583 C106.209279,5.54674583 106.277437,5.56587083 106.277437,5.6310375 C106.277437,5.6969125 106.21943,5.71532917 106.122994,5.71532917 C106.017131,5.71532917 105.959124,5.72524583 105.844561,5.74437083 C105.58498,5.79112083 105.507396,5.95120417 105.488544,6.2791625 C105.468966,6.57949583 105.468966,6.8422875 105.468966,8.2702875 L105.468966,9.58495417 C105.468966,10.9470792 105.748124,11.5201208 106.21943,11.8955375 C106.651581,12.2433292 107.094609,12.2808708 107.420898,12.2808708 C107.844348,12.2808708 108.363509,12.1498292 108.747805,11.7737042 C109.276392,11.2573292 109.305396,10.4115792 109.305396,9.44470417 L109.305396,8.2702875 C109.305396,6.8422875 109.305396,6.57949583 109.285819,6.2791625 C109.266966,5.95970417 109.190107,5.8095375 108.873245,5.74437083 C108.79566,5.72524583 108.632516,5.71532917 108.526654,5.71532917 C108.420791,5.71532917 108.363509,5.6969125 108.363509,5.6310375 C108.363509,5.56587083 108.430217,5.54674583 108.565083,5.54674583 C109.055966,5.54674583 109.661413,5.57437083 109.670839,5.57437083 C109.786128,5.57437083 110.391575,5.54674583 110.767169,5.54674583 C110.90131,5.54674583 110.968743,5.56587083 110.968743,5.6310375 C110.968743,5.6969125 110.910736,5.71532917 110.795447,5.71532917 C110.69031,5.71532917 110.631578,5.72524583 110.516289,5.74437083 C110.257434,5.79112083 110.179849,5.95120417 110.160997,6.2791625 C110.142145,6.57949583 110.142145,6.8422875 110.142145,8.2702875 L110.142145,9.2754125 C110.142145,10.3180792 110.036282,11.4266208 109.228537,12.1023708 C108.546231,12.6754125 107.853049,12.7788292 107.22875,12.7788292 C106.719014,12.7788292 105.79598,12.7504958 105.094097,12.1307042 C104.603939,11.6986208 104.238496,11.0037458 104.238496,9.64162083 L104.238496,8.2702875 Z M113.776856,8.27014583 C113.776856,6.84285417 113.776856,6.57935417 113.757278,6.27972917 C113.738426,5.9595625 113.660842,5.81010417 113.343979,5.74422917 C113.266395,5.72510417 113.103251,5.71589583 112.968385,5.71589583 C112.863247,5.71589583 112.805241,5.69677083 112.805241,5.63160417 C112.805241,5.56572917 112.872674,5.54660417 113.016966,5.54660417 C113.526701,5.54660417 114.132148,5.57422917 114.333722,5.57422917 C114.660735,5.57422917 115.391622,5.54660417 115.689632,5.54660417 C116.295079,5.54660417 116.93968,5.60327083 117.458842,5.9510625 C117.727849,6.1295625 118.112869,6.6076875 118.112869,7.23739583 C118.112869,7.93297917 117.814859,8.5711875 116.843244,9.34114583 C117.69957,10.3930208 118.363024,11.2288542 118.930041,11.8111042 C119.468055,12.3565208 119.862502,12.4223958 120.006069,12.4507292 C120.112656,12.4691458 120.198942,12.4783542 120.275801,12.4783542 C120.35266,12.4783542 120.391814,12.5066875 120.391814,12.5534375 C120.391814,12.6285208 120.324381,12.6476458 120.209093,12.6476458 L119.295485,12.6476458 C118.756746,12.6476458 118.516742,12.6001875 118.266588,12.4691458 C117.853289,12.2523958 117.487845,11.8111042 116.949832,11.0886042 C116.564086,10.5715208 116.122509,9.9333125 115.997069,9.79235417 C115.949213,9.7356875 115.891931,9.72647917 115.824498,9.72647917 L114.987749,9.7080625 C114.939893,9.7080625 114.91089,9.72647917 114.91089,9.7824375 L114.91089,9.9141875 C114.91089,10.7875625 114.91089,11.5298958 114.958746,11.9237292 C114.987749,12.1964375 115.045756,12.4032708 115.333615,12.4408125 C115.477907,12.4592292 115.689632,12.4783542 115.804921,12.4783542 C115.88178,12.4783542 115.920935,12.5066875 115.920935,12.5534375 C115.920935,12.6193125 115.853502,12.6476458 115.728062,12.6476458 C115.170471,12.6476458 114.459162,12.6193125 114.314869,12.6193125 C114.132148,12.6193125 113.526701,12.6476458 113.142405,12.6476458 C113.016966,12.6476458 112.949533,12.6193125 112.949533,12.5534375 C112.949533,12.5066875 112.987962,12.4783542 113.103251,12.4783542 C113.247543,12.4783542 113.362832,12.4592292 113.449117,12.4408125 C113.64199,12.4032708 113.689845,12.1964375 113.728275,11.9237292 C113.776856,11.5298958 113.776856,10.7875625 113.776856,9.92339583 L113.776856,8.27014583 Z M121.909637,11.7552167 C120.96775,10.9470083 120.717596,9.89513333 120.717596,8.98421667 C120.717596,8.34600833 120.919895,7.23746667 121.842204,6.41084167 C122.534661,5.79105 123.448269,5.41563333 124.881039,5.41563333 C125.477059,5.41563333 125.832352,5.453175 126.274654,5.50913333 C126.640097,5.55588333 126.947534,5.640175 127.236843,5.66850833 C127.34198,5.678425 127.38041,5.725175 127.38041,5.78113333 C127.38041,5.856925 127.352132,5.96955 127.332554,6.29821667 C127.312977,6.60775833 127.323128,7.12484167 127.303551,7.31255 C127.294125,7.45350833 127.274547,7.52859167 127.188262,7.52859167 C127.111403,7.52859167 127.091826,7.45350833 127.091826,7.32175833 C127.083125,7.03063333 126.957685,6.70196667 126.717681,6.45759167 C126.399369,6.12963333 125.64963,5.87534167 124.765025,5.87534167 C123.929001,5.87534167 123.380836,6.082175 122.957386,6.45759167 C122.256228,7.08659167 122.073506,7.97909167 122.073506,8.89000833 C122.073506,11.1255083 123.813712,12.23405 125.101465,12.23405 C125.957791,12.23405 126.476953,12.14055 126.861248,11.7084667 C127.025118,11.5299667 127.150558,11.2572583 127.188262,11.088675 C127.217266,10.9385083 127.236843,10.9002583 127.312977,10.9002583 C127.38041,10.9002583 127.399987,10.9661333 127.399987,11.0412167 C127.399987,11.1538417 127.284699,11.9712583 127.188262,12.2907167 C127.140407,12.4500917 127.101977,12.4968417 126.938833,12.563425 C126.553812,12.7135917 125.822925,12.7787583 125.208053,12.7787583 C123.890571,12.7787583 122.784815,12.4968417 121.909637,11.7552167 Z M130.288512,8.2702875 C130.288512,6.8422875 130.288512,6.57949583 130.26966,6.2791625 C130.249357,5.95970417 130.173223,5.8095375 129.855636,5.74437083 C129.778777,5.72524583 129.614907,5.71532917 129.480766,5.71532917 C129.374904,5.71532917 129.316897,5.6969125 129.316897,5.6310375 C129.316897,5.56587083 129.38433,5.54674583 129.528622,5.54674583 C129.788928,5.54674583 130.067361,5.55595417 130.307364,5.55595417 C130.557519,5.56587083 130.77867,5.57437083 130.912811,5.57437083 C131.220973,5.57437083 133.134474,5.57437083 133.317196,5.56587083 C133.499918,5.54674583 133.653636,5.52832917 133.730495,5.50920417 C133.778351,5.49999583 133.836357,5.4716625 133.884213,5.4716625 C133.932069,5.4716625 133.941495,5.50920417 133.941495,5.55595417 C133.941495,5.62182917 133.894364,5.73445417 133.865361,6.1665375 C133.85521,6.26074583 133.836357,6.67370417 133.81678,6.78632917 C133.806629,6.8337875 133.787777,6.88974583 133.720344,6.88974583 C133.653636,6.88974583 133.634058,6.8422875 133.634058,6.75799583 C133.634058,6.69212083 133.624632,6.53274583 133.576777,6.42012083 C133.508619,6.25082917 133.413632,6.13820417 132.932175,6.08224583 C132.769031,6.06312083 131.758986,6.04399583 131.567564,6.04399583 C131.518983,6.04399583 131.500131,6.07232917 131.500131,6.13820417 L131.500131,8.5146625 C131.500131,8.57982917 131.509557,8.61807917 131.567564,8.61807917 C131.778564,8.61807917 132.88432,8.61807917 133.105471,8.5996625 C133.336048,8.57982917 133.48034,8.55220417 133.566625,8.45870417 C133.634058,8.3829125 133.672488,8.3361625 133.720344,8.3361625 C133.759498,8.3361625 133.787777,8.3552875 133.787777,8.41124583 C133.787777,8.46720417 133.749347,8.61807917 133.711643,9.0969125 C133.701491,9.28532917 133.672488,9.66074583 133.672488,9.72662083 C133.672488,9.80170417 133.672488,9.90512083 133.586203,9.90512083 C133.51877,9.90512083 133.499918,9.86757917 133.499918,9.82012083 C133.489766,9.72662083 133.489766,9.60407917 133.461488,9.48224583 C133.413632,9.29382917 133.278766,9.15357917 132.922749,9.11532917 C132.740027,9.0969125 131.78799,9.08770417 131.557412,9.08770417 C131.509557,9.08770417 131.500131,9.12524583 131.500131,9.18120417 L131.500131,9.9235375 C131.500131,10.2429958 131.489979,11.1071625 131.500131,11.3798708 C131.518983,12.0279958 131.672701,12.1682458 132.653742,12.1682458 C132.903172,12.1682458 133.307045,12.1682458 133.557199,12.0556208 C133.806629,11.9422875 133.922643,11.7453708 133.989351,11.3607458 C134.009653,11.2573292 134.028505,11.2197875 134.095938,11.2197875 C134.172072,11.2197875 134.172072,11.2948708 134.172072,11.3883708 C134.172072,11.6051208 134.095938,12.2433292 134.048082,12.4310375 C133.980649,12.6754125 133.894364,12.6754125 133.528921,12.6754125 C132.80746,12.6754125 132.278148,12.6562875 131.865574,12.6477875 C131.45155,12.6286625 131.15354,12.6194542 130.86568,12.6194542 C130.759093,12.6194542 130.547368,12.6194542 130.317515,12.6286625 C130.095639,12.6286625 129.84621,12.6477875 129.654062,12.6477875 C129.528622,12.6477875 129.461189,12.6194542 129.461189,12.5535792 C129.461189,12.5061208 129.499619,12.4777875 129.614907,12.4777875 C129.759199,12.4777875 129.875213,12.4593708 129.961498,12.4409542 C130.153646,12.4034125 130.202227,12.1965792 130.240656,11.9238708 C130.288512,11.5300375 130.288512,10.7877042 130.288512,9.9235375 L130.288512,8.2702875 Z M136.474365,12.5348083 C136.320647,12.4689333 136.291643,12.4221833 136.291643,12.21535 C136.291643,11.6982667 136.330073,11.1351417 136.339499,10.984975 C136.348925,10.8440167 136.377929,10.7406 136.455513,10.7406 C136.541798,10.7406 136.551224,10.8256 136.551224,10.899975 C136.551224,11.0225167 136.589654,11.2201417 136.638234,11.3795167 C136.849959,12.0743917 137.416977,12.327975 138.012997,12.327975 C138.878025,12.327975 139.30075,11.7549333 139.30075,11.256975 C139.30075,10.7972667 139.156458,10.3651833 138.358863,9.7546 L137.916561,9.416725 C136.85866,8.60851667 136.493217,7.95118333 136.493217,7.19043333 C136.493217,6.156975 137.377822,5.41535 138.71488,5.41535 C139.339179,5.41535 139.743777,5.50885 139.993932,5.574725 C140.080217,5.59385 140.128073,5.621475 140.128073,5.68735 C140.128073,5.80989167 140.088918,6.0826 140.088918,6.81501667 C140.088918,7.02114167 140.06064,7.096225 139.983781,7.096225 C139.916348,7.096225 139.887344,7.04026667 139.887344,6.92764167 C139.887344,6.84264167 139.839489,6.552225 139.63719,6.30714167 C139.493623,6.12935 139.214465,5.84743333 138.589441,5.84743333 C137.878131,5.84743333 137.445255,6.25118333 137.445255,6.81501667 C137.445255,7.24639167 137.667131,7.57576667 138.464726,8.167225 L138.733733,8.36414167 C139.897496,9.2191 140.310795,9.867225 140.310795,10.759725 C140.310795,11.3044333 140.099069,11.9525583 139.406612,12.39385 C138.92588,12.6948917 138.387867,12.7791833 137.878131,12.7791833 C137.32054,12.7791833 136.887664,12.7133083 136.474365,12.5348083 Z M147.213322,8.2702875 C147.213322,6.8422875 147.213322,6.57949583 147.19447,6.2791625 C147.174168,5.95970417 147.078456,5.80032917 146.867456,5.75287083 C146.761594,5.72524583 146.636154,5.71532917 146.520865,5.71532917 C146.424429,5.71532917 146.367147,5.6969125 146.367147,5.62182917 C146.367147,5.56587083 146.444006,5.54674583 146.597724,5.54674583 C146.963168,5.54674583 147.568614,5.57437083 147.847773,5.57437083 C148.087776,5.57437083 148.655518,5.54674583 149.020962,5.54674583 C149.145676,5.54674583 149.222535,5.56587083 149.222535,5.62182917 C149.222535,5.6969125 149.164529,5.71532917 149.068817,5.71532917 C148.973106,5.71532917 148.895522,5.72524583 148.780233,5.74437083 C148.520652,5.79112083 148.443793,5.95120417 148.424941,6.2791625 C148.405364,6.57949583 148.405364,6.8422875 148.405364,8.2702875 L148.405364,9.9235375 C148.405364,10.8344542 148.405364,11.5767875 148.443793,11.9805375 C148.472797,12.2341208 148.54023,12.4034125 148.828814,12.4409542 C148.962955,12.4593708 149.17468,12.4777875 149.318247,12.4777875 C149.424834,12.4777875 149.47269,12.5061208 149.47269,12.5535792 C149.47269,12.6194542 149.395831,12.6477875 149.289968,12.6477875 C148.655518,12.6477875 148.049346,12.6194542 147.790491,12.6194542 C147.568614,12.6194542 146.963168,12.6477875 146.578872,12.6477875 C146.453432,12.6477875 146.385999,12.6194542 146.385999,12.5535792 C146.385999,12.5061208 146.424429,12.4777875 146.539718,12.4777875 C146.684735,12.4777875 146.800023,12.4593708 146.886309,12.4409542 C147.078456,12.4034125 147.136463,12.2433292 147.165467,11.9713292 C147.213322,11.5767875 147.213322,10.8344542 147.213322,9.9235375 L147.213322,8.2702875 Z M152.986384,11.3698833 C153.005236,12.1023 153.130676,12.346675 153.322824,12.41255 C153.485968,12.4692167 153.66869,12.4777167 153.822408,12.4777167 C153.928996,12.4777167 153.986277,12.4968417 153.986277,12.5535083 C153.986277,12.6285917 153.899992,12.6477167 153.765126,12.6477167 C153.140102,12.6477167 152.755807,12.6193833 152.573085,12.6193833 C152.4868,12.6193833 152.035071,12.6477167 151.534762,12.6477167 C151.409322,12.6477167 151.323037,12.6378 151.323037,12.5535083 C151.323037,12.4968417 151.381044,12.4777167 151.476755,12.4777167 C151.602195,12.4777167 151.774765,12.4692167 151.909631,12.4309667 C152.159061,12.3565917 152.198215,12.0838833 152.207642,11.2664667 L152.294652,5.73438333 C152.294652,5.546675 152.32293,5.41563333 152.419367,5.41563333 C152.524504,5.41563333 152.611514,5.53746667 152.774659,5.70675833 C152.889947,5.82859167 154.351721,7.331675 155.755487,8.69309167 C156.409514,9.33200833 157.707418,10.6842167 157.870563,10.8343833 L157.919143,10.8343833 L157.822707,6.617675 C157.812556,6.043925 157.72627,5.865425 157.495693,5.77263333 C157.352126,5.71596667 157.120824,5.71596667 156.986683,5.71596667 C156.870669,5.71596667 156.83224,5.68763333 156.83224,5.63096667 C156.83224,5.55588333 156.938102,5.546675 157.081669,5.546675 C157.582703,5.546675 158.043858,5.5743 158.245432,5.5743 C158.351295,5.5743 158.716738,5.546675 159.188044,5.546675 C159.313484,5.546675 159.40847,5.55588333 159.40847,5.63096667 C159.40847,5.68763333 159.351188,5.71596667 159.235899,5.71596667 C159.139463,5.71596667 159.063329,5.71596667 158.94804,5.7443 C158.678308,5.818675 158.601449,6.0163 158.591298,6.54259167 L158.48616,12.4692167 C158.48616,12.6753417 158.447731,12.7603417 158.360721,12.7603417 C158.255583,12.7603417 158.139569,12.6562167 158.034432,12.5535083 C157.42826,11.989675 156.197789,10.7600083 155.197896,9.79171667 C154.150147,8.77809167 153.08282,7.63200833 152.91025,7.45350833 L152.881246,7.45350833 L152.986384,11.3698833 Z M161.449514,12.5348083 C161.295796,12.4689333 161.266792,12.4221833 161.266792,12.21535 C161.266792,11.6982667 161.305222,11.1351417 161.314648,10.984975 C161.324799,10.8440167 161.353078,10.7406 161.430662,10.7406 C161.516947,10.7406 161.526373,10.8256 161.526373,10.899975 C161.526373,11.0225167 161.564803,11.2201417 161.613384,11.3795167 C161.825109,12.0743917 162.392126,12.327975 162.988146,12.327975 C163.853174,12.327975 164.275899,11.7549333 164.275899,11.256975 C164.275899,10.7972667 164.131607,10.3651833 163.334012,9.7546 L162.89171,9.416725 C161.83381,8.60851667 161.468366,7.95118333 161.468366,7.19043333 C161.468366,6.156975 162.352971,5.41535 163.69003,5.41535 C164.314329,5.41535 164.718926,5.50885 164.969081,5.574725 C165.055366,5.59385 165.103222,5.621475 165.103222,5.68735 C165.103222,5.80989167 165.064067,6.0826 165.064067,6.81501667 C165.064067,7.02114167 165.035789,7.096225 164.95893,7.096225 C164.891497,7.096225 164.862493,7.04026667 164.862493,6.92764167 C164.862493,6.84264167 164.814638,6.552225 164.612339,6.30714167 C164.468772,6.12935 164.189614,5.84743333 163.56459,5.84743333 C162.85328,5.84743333 162.420404,6.25118333 162.420404,6.81501667 C162.420404,7.24639167 162.64228,7.57576667 163.439875,8.167225 L163.708882,8.36414167 C164.872645,9.2191 165.285944,9.867225 165.285944,10.759725 C165.285944,11.3044333 165.074219,11.9525583 164.381762,12.39385 C163.90103,12.6948917 163.363016,12.7791833 162.85328,12.7791833 C162.295689,12.7791833 161.862813,12.7133083 161.449514,12.5348083 Z M169.694538,6.0726125 L168.261769,6.11015417 C167.704178,6.12927917 167.472875,6.17532083 167.328583,6.38215417 C167.232872,6.52382083 167.185016,6.63644583 167.166164,6.71082083 C167.146587,6.7866125 167.117583,6.82415417 167.059576,6.82415417 C166.992143,6.82415417 166.973291,6.77669583 166.973291,6.6739875 C166.973291,6.52382083 167.156013,5.6688625 167.174865,5.59377917 C167.203868,5.4712375 167.232872,5.41527917 167.290154,5.41527917 C167.367738,5.41527917 167.464174,5.50877917 167.704178,5.52790417 C167.983336,5.55552917 168.348054,5.57465417 168.665642,5.57465417 L172.473068,5.57465417 C172.780504,5.57465417 172.992229,5.54702917 173.136521,5.52790417 C173.280088,5.49957083 173.357673,5.48115417 173.395377,5.48115417 C173.46281,5.48115417 173.472961,5.5371125 173.472961,5.67807083 C173.472961,5.87569583 173.443958,6.52382083 173.443958,6.7674875 C173.434532,6.86169583 173.414954,6.91765417 173.357673,6.91765417 C173.280088,6.91765417 173.261236,6.87090417 173.25181,6.73065417 L173.242384,6.62652917 C173.222807,6.38215417 172.963226,6.1193625 172.107624,6.10094583 L170.896006,6.0726125 L170.896006,9.9231125 C170.896006,10.7872792 170.896006,11.5296125 170.944587,11.9333625 C170.97359,12.1961542 171.030872,12.4036958 171.318731,12.4405292 C171.453597,12.4596542 171.665322,12.4780708 171.809614,12.4780708 C171.915477,12.4780708 171.963332,12.5064042 171.963332,12.5531542 C171.963332,12.6190292 171.886473,12.6473625 171.780611,12.6473625 C171.14616,12.6473625 170.540714,12.6190292 170.270982,12.6190292 C170.049831,12.6190292 169.444384,12.6473625 169.060088,12.6473625 C168.934648,12.6473625 168.867215,12.6190292 168.867215,12.5531542 C168.867215,12.5064042 168.905645,12.4780708 169.020934,12.4780708 C169.165226,12.4780708 169.28124,12.4596542 169.367525,12.4405292 C169.559673,12.4036958 169.616954,12.1961542 169.646683,11.9241542 C169.694538,11.5296125 169.694538,10.7872792 169.694538,9.9231125 L169.694538,6.0726125 Z M176.16013,8.2702875 C176.16013,6.8422875 176.16013,6.57949583 176.141277,6.2791625 C176.120975,5.95970417 176.025264,5.80032917 175.813538,5.75287083 C175.708401,5.72524583 175.582961,5.71532917 175.467673,5.71532917 C175.371236,5.71532917 175.313954,5.6969125 175.313954,5.62182917 C175.313954,5.56587083 175.390813,5.54674583 175.544532,5.54674583 C175.909975,5.54674583 176.515422,5.57437083 176.79458,5.57437083 C177.034583,5.57437083 177.602325,5.54674583 177.967769,5.54674583 C178.092484,5.54674583 178.169343,5.56587083 178.169343,5.62182917 C178.169343,5.6969125 178.111336,5.71532917 178.015624,5.71532917 C177.919913,5.71532917 177.842329,5.72524583 177.72704,5.74437083 C177.467459,5.79112083 177.3906,5.95120417 177.371748,6.2791625 C177.352171,6.57949583 177.352171,6.8422875 177.352171,8.2702875 L177.352171,9.9235375 C177.352171,10.8344542 177.352171,11.5767875 177.3906,11.9805375 C177.419604,12.2341208 177.487037,12.4034125 177.775621,12.4409542 C177.909762,12.4593708 178.121487,12.4777875 178.265054,12.4777875 C178.371642,12.4777875 178.419497,12.5061208 178.419497,12.5535792 C178.419497,12.6194542 178.342638,12.6477875 178.236776,12.6477875 C177.602325,12.6477875 176.996154,12.6194542 176.737298,12.6194542 C176.515422,12.6194542 175.909975,12.6477875 175.525679,12.6477875 C175.40024,12.6477875 175.332807,12.6194542 175.332807,12.5535792 C175.332807,12.5061208 175.371236,12.4777875 175.486525,12.4777875 C175.631542,12.4777875 175.746831,12.4593708 175.833116,12.4409542 C176.025264,12.4034125 176.08327,12.2433292 176.112274,11.9713292 C176.16013,11.5767875 176.16013,10.8344542 176.16013,9.9235375 L176.16013,8.2702875 Z M182.631376,6.0726125 L181.198607,6.11015417 C180.641015,6.12927917 180.410438,6.17532083 180.265421,6.38215417 C180.16971,6.52382083 180.121854,6.63644583 180.103002,6.71082083 C180.083424,6.7866125 180.054421,6.82415417 179.996414,6.82415417 C179.928981,6.82415417 179.910129,6.77669583 179.910129,6.6739875 C179.910129,6.52382083 180.092851,5.6688625 180.111703,5.59377917 C180.140706,5.4712375 180.16971,5.41527917 180.226991,5.41527917 C180.304576,5.41527917 180.401012,5.50877917 180.641015,5.52790417 C180.920174,5.55552917 181.284892,5.57465417 181.602479,5.57465417 L185.409905,5.57465417 C185.717342,5.57465417 185.929067,5.54702917 186.073359,5.52790417 C186.216926,5.49957083 186.29451,5.48115417 186.332215,5.48115417 C186.399648,5.48115417 186.409799,5.5371125 186.409799,5.67807083 C186.409799,5.87569583 186.380796,6.52382083 186.380796,6.7674875 C186.371369,6.86169583 186.351792,6.91765417 186.29451,6.91765417 C186.216926,6.91765417 186.198074,6.87090417 186.188648,6.73065417 L186.179222,6.62652917 C186.159644,6.38215417 185.900064,6.1193625 185.044462,6.10094583 L183.832844,6.0726125 L183.832844,9.9231125 C183.832844,10.7872792 183.832844,11.5296125 183.881424,11.9333625 C183.910428,12.1961542 183.96771,12.4036958 184.255569,12.4405292 C184.390435,12.4596542 184.60216,12.4780708 184.746452,12.4780708 C184.852314,12.4780708 184.90017,12.5064042 184.90017,12.5531542 C184.90017,12.6190292 184.823311,12.6473625 184.717448,12.6473625 C184.082998,12.6473625 183.477552,12.6190292 183.20782,12.6190292 C182.986668,12.6190292 182.381222,12.6473625 181.996926,12.6473625 C181.871486,12.6473625 181.804053,12.6190292 181.804053,12.5531542 C181.804053,12.5064042 181.842483,12.4780708 181.957771,12.4780708 C182.102789,12.4780708 182.218077,12.4596542 182.304363,12.4405292 C182.49651,12.4036958 182.553792,12.1961542 182.583521,11.9241542 C182.631376,11.5296125 182.631376,10.7872792 182.631376,9.9231125 L182.631376,6.0726125 Z M188.953183,8.2702875 C188.953183,6.8422875 188.953183,6.57949583 188.934331,6.2791625 C188.914753,5.95970417 188.837894,5.8095375 188.520307,5.74437083 C188.443447,5.72524583 188.279578,5.71532917 188.145437,5.71532917 C188.039575,5.71532917 187.982293,5.6969125 187.982293,5.6310375 C187.982293,5.56587083 188.049726,5.54674583 188.193293,5.54674583 C188.703028,5.54674583 189.308475,5.57437083 189.597784,5.57437083 C189.828362,5.57437083 190.433808,5.54674583 190.780399,5.54674583 C190.923966,5.54674583 190.992124,5.56587083 190.992124,5.6310375 C190.992124,5.6969125 190.934118,5.71532917 190.837681,5.71532917 C190.731819,5.71532917 190.673812,5.72524583 190.559248,5.74437083 C190.299667,5.79112083 190.222083,5.95120417 190.203231,6.2791625 C190.183654,6.57949583 190.183654,6.8422875 190.183654,8.2702875 L190.183654,9.58495417 C190.183654,10.9470792 190.462812,11.5201208 190.934118,11.8955375 C191.366269,12.2433292 191.809296,12.2808708 192.135585,12.2808708 C192.559035,12.2808708 193.078197,12.1498292 193.462492,11.7737042 C193.99108,11.2573292 194.020083,10.4115792 194.020083,9.44470417 L194.020083,8.2702875 C194.020083,6.8422875 194.020083,6.57949583 194.000506,6.2791625 C193.981654,5.95970417 193.904795,5.8095375 193.587932,5.74437083 C193.510348,5.72524583 193.347203,5.71532917 193.241341,5.71532917 C193.135478,5.71532917 193.078197,5.6969125 193.078197,5.6310375 C193.078197,5.56587083 193.144904,5.54674583 193.27977,5.54674583 C193.770654,5.54674583 194.3761,5.57437083 194.385526,5.57437083 C194.500815,5.57437083 195.106262,5.54674583 195.481856,5.54674583 C195.616722,5.54674583 195.68343,5.56587083 195.68343,5.6310375 C195.68343,5.6969125 195.625423,5.71532917 195.510135,5.71532917 C195.404997,5.71532917 195.346265,5.72524583 195.230977,5.74437083 C194.972121,5.79112083 194.894537,5.95120417 194.875685,6.2791625 C194.856832,6.57949583 194.856832,6.8422875 194.856832,8.2702875 L194.856832,9.2754125 C194.856832,10.3180792 194.75097,11.4266208 193.943224,12.1023708 C193.260918,12.6754125 192.567736,12.7788292 191.943437,12.7788292 C191.433702,12.7788292 190.510667,12.7504958 189.808784,12.1307042 C189.318626,11.6986208 188.953183,11.0037458 188.953183,9.64162083 L188.953183,8.2702875 Z M199.928591,6.0726125 L198.496546,6.11015417 C197.93823,6.12927917 197.707653,6.17532083 197.562635,6.38215417 C197.466924,6.52382083 197.419068,6.63644583 197.400216,6.71082083 C197.380639,6.7866125 197.351635,6.82415417 197.293629,6.82415417 C197.226196,6.82415417 197.207343,6.77669583 197.207343,6.6739875 C197.207343,6.52382083 197.390065,5.6688625 197.408917,5.59377917 C197.437921,5.4712375 197.466924,5.41527917 197.524931,5.41527917 C197.60179,5.41527917 197.698226,5.50877917 197.93823,5.52790417 C198.217388,5.55552917 198.582831,5.57465417 198.899694,5.57465417 L202.70712,5.57465417 C203.014556,5.57465417 203.226281,5.54702917 203.370574,5.52790417 C203.514141,5.49957083 203.591725,5.48115417 203.629429,5.48115417 C203.696862,5.48115417 203.707013,5.5371125 203.707013,5.67807083 C203.707013,5.87569583 203.67801,6.52382083 203.67801,6.7674875 C203.668584,6.86169583 203.649007,6.91765417 203.591725,6.91765417 C203.514141,6.91765417 203.495288,6.87090417 203.485862,6.73065417 L203.476436,6.62652917 C203.456859,6.38215417 203.197278,6.1193625 202.341677,6.10094583 L201.130058,6.0726125 L201.130058,9.9231125 C201.130058,10.7872792 201.130058,11.5296125 201.178639,11.9333625 C201.207642,12.1961542 201.264924,12.4036958 201.552783,12.4405292 C201.687649,12.4596542 201.899374,12.4780708 202.043666,12.4780708 C202.149529,12.4780708 202.197385,12.5064042 202.197385,12.5531542 C202.197385,12.6190292 202.120525,12.6473625 202.014663,12.6473625 C201.380213,12.6473625 200.774766,12.6190292 200.505034,12.6190292 C200.283883,12.6190292 199.678436,12.6473625 199.294141,12.6473625 C199.168701,12.6473625 199.101268,12.6190292 199.101268,12.5531542 C199.101268,12.5064042 199.139697,12.4780708 199.254986,12.4780708 C199.400003,12.4780708 199.515292,12.4596542 199.601577,12.4405292 C199.793725,12.4036958 199.851732,12.1961542 199.880735,11.9241542 C199.928591,11.5296125 199.928591,10.7872792 199.928591,9.9231125 L199.928591,6.0726125 Z M206.457192,8.2702875 C206.457192,6.8422875 206.457192,6.57949583 206.43834,6.2791625 C206.418762,5.95970417 206.341903,5.8095375 206.024315,5.74437083 C205.947456,5.72524583 205.783587,5.71532917 205.649446,5.71532917 C205.543584,5.71532917 205.485577,5.6969125 205.485577,5.6310375 C205.485577,5.56587083 205.55301,5.54674583 205.697302,5.54674583 C205.957608,5.54674583 206.236041,5.55595417 206.476044,5.55595417 C206.726199,5.56587083 206.94735,5.57437083 207.081491,5.57437083 C207.389652,5.57437083 209.303154,5.57437083 209.485876,5.56587083 C209.668597,5.54674583 209.822315,5.52832917 209.899175,5.50920417 C209.94703,5.49999583 210.005037,5.4716625 210.052893,5.4716625 C210.100748,5.4716625 210.1109,5.50920417 210.1109,5.55595417 C210.1109,5.62182917 210.063044,5.73445417 210.034041,6.1665375 C210.023889,6.26074583 210.005037,6.67370417 209.98546,6.78632917 C209.976034,6.8337875 209.956456,6.88974583 209.889023,6.88974583 C209.822315,6.88974583 209.802738,6.8422875 209.802738,6.75799583 C209.802738,6.69212083 209.793312,6.53274583 209.745456,6.42012083 C209.677298,6.25082917 209.582312,6.13820417 209.100855,6.08224583 C208.937711,6.06312083 207.927666,6.04399583 207.736243,6.04399583 C207.687663,6.04399583 207.66881,6.07232917 207.66881,6.13820417 L207.66881,8.5146625 C207.66881,8.57982917 207.678236,8.61807917 207.736243,8.61807917 C207.947243,8.61807917 209.052999,8.61807917 209.274151,8.5996625 C209.504728,8.57982917 209.64902,8.55220417 209.735305,8.45870417 C209.802738,8.3829125 209.841168,8.3361625 209.889023,8.3361625 C209.928178,8.3361625 209.956456,8.3552875 209.956456,8.41124583 C209.956456,8.46720417 209.918027,8.61807917 209.880322,9.0969125 C209.870171,9.28532917 209.841168,9.66074583 209.841168,9.72662083 C209.841168,9.80170417 209.841168,9.90512083 209.754882,9.90512083 C209.687449,9.90512083 209.668597,9.86757917 209.668597,9.82012083 C209.658446,9.72662083 209.658446,9.60407917 209.630168,9.48224583 C209.582312,9.29382917 209.447446,9.15357917 209.091429,9.11532917 C208.908707,9.0969125 207.956669,9.08770417 207.726092,9.08770417 C207.678236,9.08770417 207.66881,9.12524583 207.66881,9.18120417 L207.66881,9.9235375 C207.66881,10.2429958 207.658659,11.1071625 207.66881,11.3798708 C207.687663,12.0279958 207.841381,12.1682458 208.822422,12.1682458 C209.071852,12.1682458 209.475724,12.1682458 209.725879,12.0556208 C209.976034,11.9422875 210.091322,11.7453708 210.15803,11.3607458 C210.178333,11.2573292 210.197185,11.2197875 210.264618,11.2197875 C210.340752,11.2197875 210.340752,11.2948708 210.340752,11.3883708 C210.340752,11.6051208 210.264618,12.2433292 210.216762,12.4310375 C210.149329,12.6754125 210.063044,12.6754125 209.697601,12.6754125 C208.97614,12.6754125 208.446827,12.6562875 208.034254,12.6477875 C207.62023,12.6286625 207.322219,12.6194542 207.033635,12.6194542 C206.927773,12.6194542 206.716047,12.6194542 206.486195,12.6286625 C206.264319,12.6286625 206.014889,12.6477875 205.822742,12.6477875 C205.697302,12.6477875 205.629869,12.6194542 205.629869,12.5535792 C205.629869,12.5061208 205.668298,12.4777875 205.783587,12.4777875 C205.928604,12.4777875 206.043893,12.4593708 206.130178,12.4409542 C206.322326,12.4034125 206.370907,12.1965792 206.409336,11.9238708 C206.457192,11.5300375 206.457192,10.7877042 206.457192,9.9235375 L206.457192,8.2702875 Z M40.3778591,9.27534167 C40.3778591,7.17159167 39.1379622,5.865425 37.5609003,5.865425 C36.4551443,5.865425 35.1963952,6.4668 35.1963952,8.80571667 C35.1963952,10.7600083 36.3014261,12.3091333 38.1474948,12.3091333 C38.8210997,12.3091333 40.3778591,11.989675 40.3778591,9.27534167 Z M45.4669471,9.01247917 C45.4669471,9.11589583 45.4857993,9.1534375 45.5532323,9.1810625 C45.7548062,9.2469375 46.0441155,9.27527083 46.2841189,9.27527083 C46.6684144,9.27527083 46.7938543,9.23772917 46.9664247,9.11589583 C47.255734,8.90977083 47.534167,8.47697917 47.534167,7.70702083 C47.534167,6.37322917 46.6299849,5.98789583 46.0629677,5.98789583 C45.8222392,5.98789583 45.6496687,5.99710417 45.5532323,6.0254375 C45.4857993,6.0445625 45.4669471,6.08210417 45.4669471,6.1571875 L45.4669471,9.01247917 Z M60.9719667,9.303675 C60.9719667,10.2988833 60.9821179,11.0228 60.9908189,11.2013 C61.0009701,11.4357583 61.0198223,11.811175 61.0974065,11.9153 C61.2221213,12.0938 61.5969907,12.2907167 62.3561557,12.2907167 C63.3371969,12.2907167 63.9912244,12.1023 64.5676677,11.6142583 C65.1832656,11.097175 65.3754134,10.242925 65.3754134,9.27534167 C65.3754134,8.08250833 64.865678,7.31255 64.452379,6.927925 C63.5677742,6.1013 62.4714443,5.98796667 61.7217055,5.98796667 C61.5302828,5.98796667 61.1735405,6.0163 61.0974065,6.05384167 C61.0103962,6.09138333 60.9821179,6.13813333 60.9821179,6.24155 C60.9719667,6.56100833 60.9719667,7.37771667 60.9719667,8.12005 L60.9719667,9.303675 Z M74.5178041,9.01247917 C74.5178041,9.11589583 74.5366564,9.1534375 74.6040893,9.1810625 C74.8056632,9.2469375 75.0949725,9.27527083 75.3349759,9.27527083 C75.7192715,9.27527083 75.8447113,9.23772917 76.0172818,9.11589583 C76.3065911,8.90977083 76.5850241,8.47697917 76.5850241,7.70702083 C76.5850241,6.37322917 75.681567,5.98789583 75.1138247,5.98789583 C74.8730962,5.98789583 74.7005258,5.99710417 74.6040893,6.0254375 C74.5366564,6.0445625 74.5178041,6.08210417 74.5178041,6.1571875 L74.5178041,9.01247917 Z M100.56492,9.27534167 C100.56492,7.17159167 99.3250234,5.865425 97.7479615,5.865425 C96.6422055,5.865425 95.3834564,6.4668 95.3834564,8.80571667 C95.3834564,10.7600083 96.4884873,12.3091333 98.334556,12.3091333 C99.0081608,12.3091333 100.56492,11.989675 100.56492,9.27534167 Z M114.91089,9.01247917 C114.91089,9.11589583 114.929742,9.1534375 114.997175,9.1810625 C115.198749,9.2469375 115.488058,9.27527083 115.728062,9.27527083 C116.112357,9.27527083 116.237797,9.23772917 116.410368,9.11589583 C116.699677,8.90977083 116.97811,8.47697917 116.97811,7.70702083 C116.97811,6.37322917 116.074653,5.98789583 115.506911,5.98789583 C115.266182,5.98789583 115.093612,5.99710417 114.997175,6.0254375 C114.929742,6.0445625 114.91089,6.08210417 114.91089,6.1571875 L114.91089,9.01247917 Z" id="Combined-Shape" fill="#FFFFFF"></path>
                </g>
            </g>
        </g>
    </g>
</svg>