<?xml version="1.0" encoding="UTF-8"?>
<svg width="184px" height="64px" viewBox="0 0 184 64" version="1.1" xmlns="http://www.w3.org/2000/svg" xmlns:xlink="http://www.w3.org/1999/xlink">
    <!-- Generator: Sketch 44.1 (41455) - http://www.bohemiancoding.com/sketch -->
    <title>WRI logo</title>
    <desc>Created with Sketch.</desc>
    <defs></defs>
    <g id="Materials" stroke="none" stroke-width="1" fill="none" fill-rule="evenodd">
        <g id="topbar" transform="translate(-67.000000, -64.000000)">
            <g id="Group" transform="translate(-1.000000, 35.000000)">
                <g id="WRI-logo" transform="translate(68.000000, 29.000000)">
                    <path d="M8.80444877,41.8782726 L12.7800622,45.8538468 L9.18592219,49.4479513 L5.21030874,45.4723771 L8.80444877,41.8782726 Z M32.0001405,0 L32.1518868,0.151042313 L35.975754,3.97487165 L40.8049405,8.80471305 L36.8293271,12.7795847 L32.0001405,7.95114835 L17.8294215,22.1210248 L13.8545106,18.1454507 L32.0001405,0 Z M0,31.9998244 L8.80480003,23.1951113 L12.7804135,27.171388 L7.9512269,31.9998244 L22.1212434,46.1697009 L18.1456299,50.145275 L3.97491092,35.974696 L0.151043805,32.1508667 L0,31.9998244 Z M51.220289,36.8285417 L56.0494756,31.9994029 L41.8787566,17.8295264 L45.8543701,13.8539522 L60.0250891,28.0245312 L63.8496587,31.8483605 L64,31.9994029 L55.1959025,40.8041159 L51.220289,36.8285417 Z M32.0001405,56.0488517 L46.1708595,41.8782726 L50.1457704,45.8538468 L32.0001405,64 L31.8483942,63.8482552 L28.0245271,60.0237233 L23.1953405,55.195287 L27.1709539,51.2204153 L32.0001405,56.0488517 Z M55.196043,22.1211654 L51.2204296,18.1455912 L54.8145696,14.5514867 L58.790183,18.5270608 L55.196043,22.1211654 Z M45.8546511,51.2199235 L49.4487911,54.8140281 L45.4731776,58.7896022 L41.8790376,55.1954977 L45.8546511,51.2199235 Z M22.1215947,8.80415103 L18.1459812,12.7797252 L14.5518412,9.18562068 L18.5274546,5.21004651 L22.1215947,8.80415103 Z M27.4873029,41.8782726 L31.4629163,45.8538468 L18.5272439,58.7893915 L14.5516304,54.8138173 L27.4873029,41.8782726 Z M36.5131889,40.8039051 L32.5375754,36.828331 L46.1708595,23.1958841 L50.1457704,27.1707557 L36.5131889,40.8039051 Z M36.5131889,22.1211654 L32.5375754,18.1455912 L45.4732479,5.21004651 L49.4488614,9.18562068 L36.5131889,22.1211654 Z M27.4873029,23.1955328 L31.4629163,27.171107 L17.8296322,40.8035539 L13.8547213,36.8286822 L27.4873029,23.1955328 Z M27.1710242,32.5369027 L40.8043083,46.1700521 L36.8293973,50.1456263 L23.1961133,36.5124769 L27.1710242,32.5369027 Z M22.1215947,27.4871718 L18.1459812,31.462746 L5.21030874,18.5272013 L9.18592219,14.5516272 L22.1215947,27.4871718 Z M40.804519,27.4871718 L36.8296081,31.462746 L23.196324,17.8295966 L27.1712349,13.8540224 L40.804519,27.4871718 Z M45.8546511,32.5369027 L58.7903235,45.4724474 L54.8147101,49.4480216 L41.8790376,36.5124769 L45.8546511,32.5369027 Z" id="Combined-Shape" fill="#FAB72E"></path>
                    <path d="M82.3449155,7.6051142 C82.1714922,7.0746603 82.0122259,6.73084759 81.8097807,6.58700758 C81.6512222,6.48737206 81.3610036,6.45860406 81.231467,6.45860406 C81.0870656,6.45860406 81,6.44386923 81,6.32949888 C81,6.2291617 81.1160874,6.20039369 81.3185326,6.20039369 C82.0702696,6.20039369 82.8651854,6.24319487 82.9961377,6.24319487 C83.1263822,6.24319487 83.7620317,6.20039369 84.6015422,6.20039369 C84.8039873,6.20039369 84.9045021,6.24319487 84.9045021,6.32949888 C84.9045021,6.44386923 84.7891225,6.45860406 84.644721,6.45860406 C84.5286336,6.45860406 84.3842321,6.45860406 84.2830095,6.5154384 C84.1527651,6.57297441 84.1244511,6.67331159 84.1244511,6.83118477 C84.1244511,7.01782596 84.2688525,7.50477702 84.4422758,8.14960127 C84.6878999,9.09613871 86.0328154,13.4401071 86.2933043,14.2428045 L86.337191,14.2428045 L89.1424016,6.75961559 C89.2875109,6.35826688 89.3880256,6.24319487 89.5034052,6.24319487 C89.6633794,6.24319487 89.7348723,6.45860406 89.9231604,6.91748878 L92.9315241,14.1424673 L92.9754108,14.1424673 C93.2351918,13.1818967 94.392527,9.39715025 94.8979321,7.72018621 C94.9998626,7.39040667 95.0430414,7.08939513 95.0430414,6.88872077 C95.0430414,6.65927841 94.912797,6.45860406 94.3486403,6.45860406 C94.2042389,6.45860406 94.1030163,6.41510122 94.1030163,6.32949888 C94.1030163,6.2291617 94.2183959,6.20039369 94.4357059,6.20039369 C95.2023077,6.20039369 95.8089354,6.24319487 95.9398877,6.24319487 C96.0411103,6.24319487 96.6633107,6.20039369 97.1396939,6.20039369 C97.2989602,6.20039369 97.4008907,6.2291617 97.4008907,6.31476404 C97.4008907,6.41510122 97.3279821,6.45860406 97.1977376,6.45860406 C97.0533362,6.45860406 96.850891,6.47263723 96.6923325,6.53017323 C96.3447781,6.65927841 96.1855117,7.23253349 95.881844,8.04926409 C95.2171726,9.85603497 93.6981259,14.4147108 92.9895678,16.5652944 C92.8303015,17.0669803 92.7581008,17.2388867 92.5698126,17.2388867 C92.4254111,17.2388867 92.3383456,17.0669803 92.1217434,16.5365264 L89.1140876,9.33961424 L89.0843579,9.33961424 C88.809712,10.0707425 86.8864828,15.1605739 86.2642824,16.4789904 C85.9889287,17.0669803 85.9174358,17.2388867 85.7440125,17.2388867 C85.599611,17.2388867 85.5415673,17.0810135 85.4113229,16.7084328 L82.3449155,7.6051142 Z M98.4561538,11.6195837 C98.4561538,9.16798855 100.09058,6 104.428287,6 C108.029829,6 110.27159,8.07831275 110.27159,11.3613733 C110.27159,14.6444339 107.957628,17.2391673 104.283885,17.2391673 C100.133759,17.2391673 98.4561538,14.1567811 98.4561538,11.6195837 Z M114.152663,10.357791 C114.152663,8.17843943 114.152663,7.77709072 114.123641,7.318206 C114.095327,6.83125494 113.979239,6.60181258 113.502148,6.5014754 C113.386061,6.47270739 113.140437,6.45867422 112.937992,6.45867422 C112.778725,6.45867422 112.69166,6.42990622 112.69166,6.32956904 C112.69166,6.2285302 112.79359,6.20046386 113.010192,6.20046386 C113.776794,6.20046386 114.687797,6.24326503 114.991465,6.24326503 C115.483421,6.24326503 116.582005,6.20046386 117.030782,6.20046386 C117.941785,6.20046386 118.910832,6.28606621 119.691591,6.81652011 C120.096481,7.0894653 120.675503,7.82059355 120.675503,8.78116417 C120.675503,9.8413703 120.226726,10.8166757 118.765723,11.9919539 C120.053302,13.5973488 121.051371,14.8736657 121.904331,15.7619655 C122.714819,16.5934309 123.30729,16.6944698 123.5246,16.737271 C123.683867,16.766039 123.813403,16.7800721 123.928783,16.7800721 C124.04487,16.7800721 124.102914,16.823575 124.102914,16.8951441 C124.102914,17.0095145 124.001691,17.0382825 123.828268,17.0382825 L122.453623,17.0382825 C121.64455,17.0382825 121.282838,16.9667133 120.90697,16.766039 C120.28477,16.4362594 119.735478,15.7619655 118.924989,14.6582565 C118.347383,13.8702939 117.681296,12.8949885 117.493716,12.680281 C117.421515,12.593977 117.33445,12.5799438 117.233227,12.5799438 L115.974669,12.5511758 C115.903176,12.5511758 115.85929,12.5799438 115.85929,12.6655461 L115.85929,12.8662205 C115.85929,14.1993718 115.85929,15.3325505 115.932198,15.9345735 C115.974669,16.3499554 116.061735,16.6657018 116.495647,16.7232378 C116.712249,16.7520058 117.030782,16.7800721 117.204205,16.7800721 C117.319585,16.7800721 117.378336,16.823575 117.378336,16.8951441 C117.378336,16.9954813 117.276406,17.0382825 117.088118,17.0382825 C116.250023,17.0382825 115.179753,16.9954813 114.962443,16.9954813 C114.687797,16.9954813 113.776794,17.0382825 113.197773,17.0382825 C113.010192,17.0382825 112.90897,16.9954813 112.90897,16.8951441 C112.90897,16.823575 112.967013,16.7800721 113.140437,16.7800721 C113.357039,16.7800721 113.53117,16.7520058 113.661415,16.7232378 C113.950218,16.6657018 114.022418,16.3499554 114.080462,15.9345735 C114.152663,15.3325505 114.152663,14.1993718 114.152663,12.8809553 L114.152663,10.357791 Z M129.081012,12.8809553 C129.081012,14.7157925 129.081012,15.7051312 129.385388,15.9633415 C129.630304,16.1780491 130.006881,16.2783862 131.134486,16.2783862 C131.901088,16.2783862 132.465245,16.2643531 132.826956,15.8770375 C133.000379,15.6903963 133.173803,15.2897493 133.202825,15.0168041 C133.217689,14.8876989 133.246711,14.8020966 133.362091,14.8020966 C133.463313,14.8020966 133.478178,14.8736657 133.478178,15.0455721 C133.478178,15.2034453 133.376248,16.2783862 133.260868,16.6944698 C133.173803,17.0095145 133.10231,17.0810837 132.349865,17.0810837 C131.307909,17.0810837 130.556172,17.0523157 129.905658,17.0382825 C129.254436,17.0095145 128.734166,16.9954813 128.141695,16.9954813 C127.981721,16.9954813 127.663896,16.9954813 127.31705,17.0095145 C126.98436,17.0095145 126.608491,17.0382825 126.318981,17.0382825 C126.130693,17.0382825 126.02947,16.9954813 126.02947,16.8951441 C126.02947,16.823575 126.087514,16.7800721 126.261645,16.7800721 C126.477539,16.7800721 126.65167,16.7520058 126.781915,16.7232378 C127.070718,16.6657018 127.143626,16.3499554 127.20167,15.9345735 C127.273163,15.3325505 127.273163,14.1993718 127.273163,12.8809553 L127.273163,10.357791 C127.273163,8.17843943 127.273163,7.77709072 127.244141,7.318206 C127.215119,6.83125494 127.09974,6.60181258 126.622648,6.5014754 C126.506561,6.47270739 126.333138,6.45867422 126.145557,6.45867422 C125.986291,6.45867422 125.899933,6.42990622 125.899933,6.32956904 C125.899933,6.22923186 126.000448,6.20046386 126.217758,6.20046386 C126.897294,6.20046386 127.808298,6.24326503 128.199031,6.24326503 C128.545878,6.24326503 129.60199,6.20046386 130.166147,6.20046386 C130.367884,6.20046386 130.469815,6.22923186 130.469815,6.32956904 C130.469815,6.42990622 130.382749,6.45867422 130.209326,6.45867422 C130.050059,6.45867422 129.818592,6.47270739 129.645169,6.5014754 C129.254436,6.57304457 129.139056,6.81652011 129.110034,7.318206 C129.081012,7.77709072 129.081012,8.17843943 129.081012,10.357791 L129.081012,12.8809553 Z M137.310267,10.3572999 C137.310267,8.17864993 137.310267,7.77730122 137.281245,7.3184165 C137.252224,6.83146543 137.136844,6.60132141 136.659753,6.50098424 C136.543665,6.47291789 136.298749,6.45818306 136.095596,6.45818306 C135.937038,6.45818306 135.849972,6.42941506 135.849972,6.32907788 C135.849972,6.2287407 135.951195,6.20067436 136.167797,6.20067436 C136.934399,6.20067436 137.845402,6.24347553 138.250292,6.24347553 C138.699069,6.24347553 139.610073,6.20067436 140.477897,6.20067436 C142.285747,6.20067436 144.700932,6.20067436 146.277314,7.83483722 C147.000737,8.57999865 147.680274,9.77001162 147.680274,11.4757437 C147.680274,13.2818129 146.913672,14.658467 146.103891,15.4758993 C145.438512,16.1494916 143.93433,17.1675982 141.258656,17.1675982 C140.738386,17.1675982 140.145208,17.1240953 139.595916,17.0812942 C139.045916,17.038493 138.540511,16.9949902 138.1788,16.9949902 C138.018825,16.9949902 137.701001,16.9949902 137.354154,17.009725 C137.021464,17.009725 136.645596,17.038493 136.356085,17.038493 C136.167797,17.038493 136.066574,16.9949902 136.066574,16.894653 C136.066574,16.8230838 136.124618,16.7802826 136.298749,16.7802826 C136.514644,16.7802826 136.688775,16.7515146 136.819019,16.7227466 C137.107822,16.6659123 137.180731,16.3501659 137.238774,15.934784 C137.310267,15.3320593 137.310267,14.1995823 137.310267,12.8811658 L137.310267,10.3572999 Z M83.6321412,32.2383828 C83.6321412,30.0590312 83.6321412,29.6576825 83.6031194,29.1987977 C83.5748053,28.7118467 83.4587179,28.4824043 82.9816268,28.3820671 C82.8655394,28.3532991 82.6199153,28.339266 82.4174702,28.339266 C82.2582038,28.339266 82.1711383,28.310498 82.1711383,28.2101608 C82.1711383,28.1091219 82.2730687,28.0810556 82.4896709,28.0810556 C83.2562727,28.0810556 84.167276,28.1238568 84.4709438,28.1238568 C84.9628997,28.1238568 86.0614833,28.0810556 86.5102604,28.0810556 C87.4212637,28.0810556 88.3903107,28.1666579 89.1710695,28.6971118 C89.5759599,28.970057 90.1549814,29.7011853 90.1549814,30.6617559 C90.1549814,31.721962 89.7062043,32.6972675 88.2452014,33.8725456 C89.532781,35.4779405 90.5308499,36.7542575 91.3838095,37.6425573 C92.194298,38.4740227 92.7867687,38.5750615 93.0040787,38.6178627 C93.163345,38.6466307 93.2928816,38.6606639 93.4082612,38.6606639 C93.5243487,38.6606639 93.5823924,38.7041667 93.5823924,38.7757359 C93.5823924,38.8901062 93.4811698,38.9188742 93.3077465,38.9188742 L91.9331013,38.9188742 C91.1240284,38.9188742 90.7623169,38.8473051 90.3864484,38.6466307 C89.7642481,38.3168512 89.2149563,37.6425573 88.4044677,36.5388483 C87.8268619,35.7508857 87.1607748,34.7755802 86.9731945,34.5608727 C86.9009937,34.4745687 86.8139282,34.4605355 86.7127056,34.4605355 L85.4541478,34.4317675 C85.3826549,34.4317675 85.3387682,34.4605355 85.3387682,34.5461379 L85.3387682,34.7468122 C85.3387682,36.0799636 85.3387682,37.2131422 85.4116768,37.8151653 C85.4541478,38.2305472 85.5412134,38.5462935 85.9751256,38.6038295 C86.1917278,38.6325975 86.5102604,38.6606639 86.6836837,38.6606639 C86.7990633,38.6606639 86.8578149,38.7041667 86.8578149,38.7757359 C86.8578149,38.8760731 86.7558844,38.9188742 86.5675963,38.9188742 C85.7295015,38.9188742 84.6592319,38.8760731 84.4419219,38.8760731 C84.167276,38.8760731 83.2562727,38.9188742 82.6772512,38.9188742 C82.4896709,38.9188742 82.3884483,38.8760731 82.3884483,38.7757359 C82.3884483,38.7041667 82.446492,38.6606639 82.6199153,38.6606639 C82.8365175,38.6606639 83.0106487,38.6325975 83.1408931,38.6038295 C83.429696,38.5462935 83.5018968,38.2305472 83.5599405,37.8151653 C83.6321412,37.2131422 83.6321412,36.0799636 83.6321412,34.7615471 L83.6321412,32.2383828 Z M96.7535616,32.2382424 C96.7535616,30.0595925 96.7535616,29.6575421 96.7245397,29.1986574 C96.6962257,28.7117063 96.5801383,28.482264 96.1030472,28.3819268 C95.9869597,28.3531588 95.7413357,28.3391256 95.5388905,28.3391256 C95.3803321,28.3391256 95.2932665,28.3103576 95.2932665,28.2100205 C95.2932665,28.1096833 95.3944891,28.0809153 95.6110913,28.0809153 C96.0018246,28.0809153 96.420872,28.0956501 96.7825834,28.0956501 C97.1584519,28.1096833 97.4911416,28.1237164 97.6935867,28.1237164 C98.1565208,28.1237164 101.03464,28.1237164 101.309994,28.1096833 C101.583932,28.0809153 101.815399,28.0521473 101.930778,28.0233793 C102.003687,28.0093461 102.090045,27.9665449 102.162953,27.9665449 C102.235154,27.9665449 102.250019,28.0233793 102.250019,28.0956501 C102.250019,28.1952856 102.17711,28.3678936 102.133931,29.0267511 C102.119067,29.1705911 102.090045,29.8013821 102.061731,29.9732885 C102.047574,30.0448577 102.017844,30.1311617 101.916621,30.1311617 C101.815399,30.1311617 101.786377,30.0595925 101.786377,29.9304873 C101.786377,29.8301501 101.77222,29.585973 101.699311,29.4140666 C101.598797,29.1558562 101.454395,28.9839499 100.730972,28.8983475 C100.48464,28.8695795 98.9663015,28.8408115 98.6774986,28.8408115 C98.60459,28.8408115 98.5755682,28.8836127 98.5755682,28.9839499 L98.5755682,32.6108231 C98.5755682,32.7111603 98.590433,32.7686963 98.6774986,32.7686963 C98.9953234,32.7686963 100.658772,32.7686963 100.990753,32.7399283 C101.338308,32.7111603 101.55491,32.6683592 101.685862,32.5252208 C101.786377,32.4101488 101.844421,32.3385796 101.916621,32.3385796 C101.974665,32.3385796 102.017844,32.3673476 102.017844,32.4536516 C102.017844,32.539254 101.9598,32.7686963 101.901757,33.4998246 C101.8876,33.786803 101.844421,34.360058 101.844421,34.4603952 C101.844421,34.5754672 101.844421,34.7326387 101.714176,34.7326387 C101.612954,34.7326387 101.583932,34.6758044 101.583932,34.6042352 C101.569775,34.4603952 101.569775,34.273754 101.525888,34.0878145 C101.454395,33.8008361 101.251242,33.5861286 100.716815,33.5285926 C100.441461,33.4998246 99.0101882,33.4857914 98.6626338,33.4857914 C98.590433,33.4857914 98.5755682,33.5426258 98.5755682,33.6289298 L98.5755682,34.7614067 C98.5755682,35.2490595 98.5614112,36.567476 98.5755682,36.9835595 C98.60459,37.9728981 98.8360571,38.1876056 100.311217,38.1876056 C100.687793,38.1876056 101.295129,38.1876056 101.670997,38.0156993 C102.047574,37.8437929 102.220997,37.5427814 102.321512,36.9547915 C102.350534,36.79762 102.379555,36.740084 102.480778,36.740084 C102.596866,36.740084 102.596866,36.8544543 102.596866,36.9975927 C102.596866,37.3273722 102.480778,38.3026777 102.408577,38.5889544 C102.307355,38.9622367 102.17711,38.9622367 101.627819,38.9622367 C100.543392,38.9622367 99.7470604,38.9334687 99.1255678,38.9187339 C98.5040753,38.8899659 98.0552982,38.8759327 97.621386,38.8759327 C97.4621197,38.8759327 97.1442949,38.8759327 96.7974483,38.8899659 C96.4647587,38.8899659 96.0888902,38.9187339 95.7986716,38.9187339 C95.6110913,38.9187339 95.5098687,38.8759327 95.5098687,38.7755955 C95.5098687,38.7040264 95.5679124,38.6605235 95.7413357,38.6605235 C95.9579379,38.6605235 96.1320691,38.6324572 96.2623135,38.6036892 C96.5511164,38.5461532 96.6233171,38.2311085 96.6813609,37.8150249 C96.7535616,37.2130019 96.7535616,36.0805249 96.7535616,34.7614067 L96.7535616,32.2382424 Z M106.017127,38.7467574 C105.786368,38.6464202 105.742481,38.574851 105.742481,38.2598063 C105.742481,37.4711421 105.800525,36.6109086 105.81539,36.3814663 C105.828839,36.1667587 105.872726,36.0088855 105.988813,36.0088855 C106.119058,36.0088855 106.133215,36.1379907 106.133215,36.2523611 C106.133215,36.4390023 106.191258,36.7400138 106.263459,36.9834893 C106.581284,38.0443971 107.434951,38.4317127 108.331798,38.4317127 C109.632826,38.4317127 110.269892,37.5567444 110.269892,36.7975498 C110.269892,36.0944879 110.052582,35.4356305 108.852068,34.5038279 L108.186688,33.9874071 C106.595441,32.754593 106.046149,31.7512212 106.046149,30.5899762 C106.046149,29.0126477 107.376908,27.8801707 109.387202,27.8801707 C110.327227,27.8801707 110.934563,28.0233091 111.311139,28.1236463 C111.440676,28.1524143 111.513585,28.1952155 111.513585,28.2955526 C111.513585,28.4821938 111.455541,28.8982774 111.455541,30.0167212 C111.455541,30.3317659 111.411654,30.4461362 111.296275,30.4461362 C111.195052,30.4461362 111.151873,30.3605339 111.151873,30.1886275 C111.151873,30.0595223 111.078964,29.6146708 110.776005,29.2420901 C110.558695,28.9698465 110.138939,28.5397298 109.198914,28.5397298 C108.128645,28.5397298 107.47813,29.1564877 107.47813,30.0167212 C107.47813,30.6755786 107.81082,31.1772645 109.010626,32.0810007 L109.416224,32.3820123 C111.16603,33.6863956 111.787523,34.6757342 111.787523,36.0376536 C111.787523,36.869119 111.469698,37.8577559 110.42845,38.5320499 C109.705735,38.9909346 108.895246,39.1193381 108.128645,39.1193381 C107.29055,39.1193381 106.639328,39.0190009 106.017127,38.7467574 Z M114.619915,33.5001754 C114.619915,31.0485803 116.254341,27.8805917 120.592047,27.8805917 C124.193589,27.8805917 126.435351,29.9589045 126.435351,33.2419651 C126.435351,36.5250256 124.121389,39.1197591 120.447646,39.1197591 C116.29752,39.1197591 114.619915,36.0373729 114.619915,33.5001754 Z M129.896031,32.2382424 C129.896031,30.0595925 129.896031,29.6575421 129.867009,29.1986574 C129.837988,28.7117063 129.7219,28.482264 129.244809,28.3819268 C129.129429,28.3531588 128.883097,28.3391256 128.680652,28.3391256 C128.522094,28.3391256 128.435028,28.3103576 128.435028,28.2100205 C128.435028,28.1096833 128.536251,28.0809153 128.753561,28.0809153 C129.520163,28.0809153 130.431166,28.1237164 130.86437,28.1237164 C131.211217,28.1237164 132.122928,28.0809153 132.643906,28.0809153 C132.860508,28.0809153 132.961731,28.1096833 132.961731,28.2100205 C132.961731,28.3103576 132.874665,28.3391256 132.730264,28.3391256 C132.570997,28.3391256 132.48464,28.3531588 132.311216,28.3819268 C131.920483,28.453496 131.804396,28.6976732 131.775374,29.1986574 C131.74706,29.6575421 131.74706,30.0595925 131.74706,32.2382424 L131.74706,34.244986 C131.74706,36.3240004 132.166107,37.198267 132.874665,37.7722238 C133.525887,38.3026777 134.190559,38.3602137 134.683223,38.3602137 C135.318872,38.3602137 136.100339,38.1588376 136.678652,37.5855826 C137.474276,36.79762 137.517455,35.5072698 137.517455,34.0302785 L137.517455,32.2382424 C137.517455,30.0595925 137.517455,29.6575421 137.489141,29.1986574 C137.460119,28.7117063 137.343324,28.482264 136.866941,28.3819268 C136.751561,28.3531588 136.505229,28.3391256 136.345963,28.3391256 C136.187404,28.3391256 136.100339,28.3103576 136.100339,28.2100205 C136.100339,28.1096833 136.200854,28.0809153 136.403299,28.0809153 C137.140879,28.0809153 138.051882,28.1237164 138.066747,28.1237164 C138.24017,28.1237164 139.151881,28.0809153 139.716038,28.0809153 C139.917775,28.0809153 140.019706,28.1096833 140.019706,28.2100205 C140.019706,28.3103576 139.93264,28.3391256 139.759217,28.3391256 C139.599951,28.3391256 139.513593,28.3531588 139.340169,28.3819268 C138.949436,28.453496 138.833349,28.6976732 138.804327,29.1986574 C138.776013,29.6575421 138.776013,30.0595925 138.776013,32.2382424 L138.776013,33.7727698 C138.776013,35.3634298 138.616039,37.0551287 137.402075,38.0872685 C136.374985,38.9622367 135.333737,39.1194083 134.393712,39.1194083 C133.62711,39.1194083 132.239016,39.0766071 131.182903,38.1300696 C130.445323,37.4712122 129.896031,36.4103044 129.896031,34.33129 L129.896031,32.2382424 Z M144.205224,32.2383828 C144.205224,30.0590312 144.205224,29.6576825 144.176202,29.1987977 C144.147181,28.7118467 144.031801,28.4824043 143.55471,28.3820671 C143.438623,28.3532991 143.192998,28.339266 142.990553,28.339266 C142.831287,28.339266 142.744221,28.310498 142.744221,28.2101608 C142.744221,28.1091219 142.846152,28.0810556 143.062754,28.0810556 C143.829356,28.0810556 144.740359,28.1238568 145.044027,28.1238568 C145.535983,28.1238568 146.634566,28.0810556 147.083344,28.0810556 C147.994347,28.0810556 148.963394,28.1666579 149.744153,28.6971118 C150.149043,28.970057 150.728065,29.7011853 150.728065,30.6617559 C150.728065,31.721962 150.279287,32.6972675 148.818285,33.8725456 C150.105864,35.4779405 151.103933,36.7542575 151.956893,37.6425573 C152.767381,38.4740227 153.359852,38.5750615 153.577162,38.6178627 C153.736428,38.6466307 153.865965,38.6606639 153.981344,38.6606639 C154.097432,38.6606639 154.155476,38.7041667 154.155476,38.7757359 C154.155476,38.8901062 154.054253,38.9188742 153.88083,38.9188742 L152.506184,38.9188742 C151.697112,38.9188742 151.3354,38.8473051 150.959532,38.6466307 C150.337331,38.3168512 149.788039,37.6425573 148.977551,36.5388483 C148.399945,35.7508857 147.733858,34.7755802 147.546278,34.5608727 C147.474077,34.4745687 147.387011,34.4605355 147.285789,34.4605355 L146.027231,34.4317675 C145.955738,34.4317675 145.911851,34.4605355 145.911851,34.5461379 L145.911851,34.7468122 C145.911851,36.0799636 145.911851,37.2131422 145.98476,37.8151653 C146.027231,38.2305472 146.114297,38.5462935 146.548209,38.6038295 C146.764811,38.6325975 147.083344,38.6606639 147.256767,38.6606639 C147.372146,38.6606639 147.430898,38.7041667 147.430898,38.7757359 C147.430898,38.8760731 147.328968,38.9188742 147.140679,38.9188742 C146.302585,38.9188742 145.232315,38.8760731 145.015005,38.8760731 C144.740359,38.8760731 143.829356,38.9188742 143.250334,38.9188742 C143.062754,38.9188742 142.961531,38.8760731 142.961531,38.7757359 C142.961531,38.7041667 143.019575,38.6606639 143.192998,38.6606639 C143.409601,38.6606639 143.583732,38.6325975 143.713976,38.6038295 C144.002779,38.5462935 144.07498,38.2305472 144.133024,37.8151653 C144.205224,37.2131422 144.205224,36.0799636 144.205224,34.7615471 L144.205224,32.2383828 Z M156.399644,37.5568146 C154.982528,36.3240004 154.606659,34.7186056 154.606659,33.3279182 C154.606659,32.3526128 154.910327,30.6616156 156.298421,29.4000334 C157.339669,28.453496 158.714314,27.8802409 160.868303,27.8802409 C161.765149,27.8802409 162.300284,27.9377769 162.965663,28.0233793 C163.515663,28.0956501 163.977889,28.2240536 164.411801,28.2675565 C164.571067,28.2815896 164.629111,28.3531588 164.629111,28.4394628 C164.629111,28.5538332 164.585224,28.7264412 164.556203,29.2274254 C164.527181,29.701045 164.542046,30.4890076 164.513024,30.7759859 C164.498159,30.9913951 164.469137,31.1057655 164.3396,31.1057655 C164.224221,31.1057655 164.195199,30.9913951 164.195199,30.7900191 C164.180334,30.3458692 163.992754,29.8441833 163.631042,29.4716026 C163.153951,28.9699167 162.025638,28.5826012 160.694879,28.5826012 C159.43703,28.5826012 158.612384,28.8983475 157.976734,29.4716026 C156.919914,30.4321732 156.645976,31.7940925 156.645976,33.1847799 C156.645976,36.596244 159.263606,38.2879428 161.200992,38.2879428 C162.488572,38.2879428 163.269331,38.1448045 163.847645,37.4852454 C164.093269,37.2130019 164.281557,36.7969183 164.3396,36.538708 C164.382779,36.3099673 164.411801,36.2524312 164.527181,36.2524312 C164.629111,36.2524312 164.657425,36.3527684 164.657425,36.4671388 C164.657425,36.6390451 164.484002,37.8865941 164.3396,38.3742468 C164.2674,38.6177224 164.209356,38.6892915 163.963732,38.7896287 C163.38471,39.0190711 162.285419,39.1194083 161.360259,39.1194083 C159.378986,39.1194083 157.715538,38.6892915 156.399644,37.5568146 Z M168.965331,32.2382424 C168.965331,30.0595925 168.965331,29.6575421 168.936309,29.1986574 C168.907995,28.7117063 168.791908,28.482264 168.314817,28.3819268 C168.198729,28.3531588 167.953105,28.3391256 167.75066,28.3391256 C167.592102,28.3391256 167.505036,28.3103576 167.505036,28.2100205 C167.505036,28.1096833 167.606259,28.0809153 167.822861,28.0809153 C168.213594,28.0809153 168.632642,28.0956501 168.994353,28.0956501 C169.370221,28.1096833 169.702911,28.1237164 169.905356,28.1237164 C170.36829,28.1237164 173.24641,28.1237164 173.521763,28.1096833 C173.795701,28.0809153 174.027168,28.0521473 174.142548,28.0233793 C174.215457,28.0093461 174.301814,27.9665449 174.374723,27.9665449 C174.446924,27.9665449 174.461788,28.0233793 174.461788,28.0956501 C174.461788,28.1952856 174.38888,28.3678936 174.345701,29.0267511 C174.330836,29.1705911 174.301814,29.8013821 174.2735,29.9732885 C174.259343,30.0448577 174.229614,30.1311617 174.128391,30.1311617 C174.027168,30.1311617 173.998147,30.0595925 173.998147,29.9304873 C173.998147,29.8301501 173.98399,29.585973 173.911081,29.4140666 C173.810566,29.1558562 173.666165,28.9839499 172.942742,28.8983475 C172.69641,28.8695795 171.178071,28.8408115 170.889268,28.8408115 C170.81636,28.8408115 170.787338,28.8836127 170.787338,28.9839499 L170.787338,32.6108231 C170.787338,32.7111603 170.802203,32.7686963 170.889268,32.7686963 C171.207093,32.7686963 172.870541,32.7686963 173.202523,32.7399283 C173.550077,32.7111603 173.766679,32.6683592 173.897632,32.5252208 C173.998147,32.4101488 174.05619,32.3385796 174.128391,32.3385796 C174.186435,32.3385796 174.229614,32.3673476 174.229614,32.4536516 C174.229614,32.539254 174.17157,32.7686963 174.113526,33.4998246 C174.099369,33.786803 174.05619,34.360058 174.05619,34.4603952 C174.05619,34.5754672 174.05619,34.7326387 173.925946,34.7326387 C173.824723,34.7326387 173.795701,34.6758044 173.795701,34.6042352 C173.781544,34.4603952 173.781544,34.273754 173.737658,34.0878145 C173.666165,33.8008361 173.463012,33.5861286 172.928585,33.5285926 C172.653231,33.4998246 171.221958,33.4857914 170.874403,33.4857914 C170.802203,33.4857914 170.787338,33.5426258 170.787338,33.6289298 L170.787338,34.7614067 C170.787338,35.2490595 170.773181,36.567476 170.787338,36.9835595 C170.81636,37.9728981 171.047827,38.1876056 172.522987,38.1876056 C172.899563,38.1876056 173.506898,38.1876056 173.882767,38.0156993 C174.259343,37.8437929 174.432767,37.5427814 174.533281,36.9547915 C174.562303,36.79762 174.591325,36.740084 174.692548,36.740084 C174.808635,36.740084 174.808635,36.8544543 174.808635,36.9975927 C174.808635,37.3273722 174.692548,38.3026777 174.620347,38.5889544 C174.519124,38.9622367 174.38888,38.9622367 173.839588,38.9622367 C172.755161,38.9622367 171.95883,38.9334687 171.337337,38.9187339 C170.715845,38.8899659 170.267068,38.8759327 169.833156,38.8759327 C169.673889,38.8759327 169.356064,38.8759327 169.009218,38.8899659 C168.676528,38.8899659 168.30066,38.9187339 168.010441,38.9187339 C167.822861,38.9187339 167.721638,38.8759327 167.721638,38.7755955 C167.721638,38.7040264 167.779682,38.6605235 167.953105,38.6605235 C168.169707,38.6605235 168.343839,38.6324572 168.474083,38.6036892 C168.762886,38.5461532 168.835087,38.2311085 168.89313,37.8150249 C168.965331,37.2130019 168.965331,36.0805249 168.965331,34.7614067 L168.965331,32.2382424 Z M178.229605,38.7467574 C177.998845,38.6464202 177.954959,38.574851 177.954959,38.2598063 C177.954959,37.4711421 178.013002,36.6109086 178.027867,36.3814663 C178.042024,36.1667587 178.085203,36.0088855 178.201291,36.0088855 C178.331535,36.0088855 178.345692,36.1379907 178.345692,36.2523611 C178.345692,36.4390023 178.403736,36.7400138 178.475937,36.9834893 C178.793761,38.0443971 179.647429,38.4317127 180.544275,38.4317127 C181.845304,38.4317127 182.482369,37.5567444 182.482369,36.7975498 C182.482369,36.0944879 182.265059,35.4356305 181.064545,34.5038279 L180.399166,33.9874071 C178.807918,32.754593 178.258626,31.7512212 178.258626,30.5899762 C178.258626,29.0126477 179.589385,27.8801707 181.59968,27.8801707 C182.539705,27.8801707 183.14704,28.0233091 183.523617,28.1236463 C183.653153,28.1524143 183.726062,28.1952155 183.726062,28.2955526 C183.726062,28.4821938 183.668018,28.8982774 183.668018,30.0167212 C183.668018,30.3317659 183.624132,30.4461362 183.508752,30.4461362 C183.407529,30.4461362 183.36435,30.3605339 183.36435,30.1886275 C183.36435,30.0595223 183.291442,29.6146708 182.988482,29.2420901 C182.771172,28.9698465 182.351417,28.5397298 181.411392,28.5397298 C180.341122,28.5397298 179.690608,29.1564877 179.690608,30.0167212 C179.690608,30.6755786 180.023297,31.1772645 181.223103,32.0810007 L181.628702,32.3820123 C183.378507,33.6863956 184,34.6757342 184,36.0376536 C184,36.869119 183.682175,37.8577559 182.640927,38.5320499 C181.918212,38.9909346 181.107724,39.1193381 180.341122,39.1193381 C179.503027,39.1193381 178.851805,39.0190009 178.229605,38.7467574 Z M83.6320704,54.1188342 C83.6320704,51.9401842 83.6320704,51.5381339 83.6030486,51.0792491 C83.5747346,50.5922981 83.4296253,50.3481209 83.1118005,50.2765517 C82.9525342,50.2337505 82.764246,50.2197174 82.5908227,50.2197174 C82.4464212,50.2197174 82.3593557,50.1909494 82.3593557,50.0758774 C82.3593557,49.990275 82.4747352,49.961507 82.7062023,49.961507 C83.2562019,49.961507 84.1672052,50.0043082 84.5869604,50.0043082 C84.9479641,50.0043082 85.8009236,49.961507 86.3509233,49.961507 C86.5385036,49.961507 86.6552989,49.990275 86.6552989,50.0758774 C86.6552989,50.1909494 86.5675255,50.2197174 86.423124,50.2197174 C86.2787226,50.2197174 86.163343,50.2337505 85.9892118,50.2625185 C85.5991863,50.3340877 85.4830989,50.5782649 85.454077,51.0792491 C85.425763,51.5381339 85.425763,51.9401842 85.425763,54.1188342 L85.425763,56.6419985 C85.425763,58.0326858 85.425763,59.1651628 85.4830989,59.7819207 C85.5269856,60.1685346 85.6275003,60.4267449 86.0621204,60.4842809 C86.2645656,60.5130489 86.5823903,60.5411153 86.7997004,60.5411153 C86.9582588,60.5411153 87.0311674,60.5846181 87.0311674,60.6561873 C87.0311674,60.7565245 86.91508,60.7993256 86.7558136,60.7993256 C85.8009236,60.7993256 84.8899203,60.7565245 84.4998949,60.7565245 C84.1672052,60.7565245 83.2562019,60.7993256 82.6771804,60.7993256 C82.4896001,60.7993256 82.3883775,60.7565245 82.3883775,60.6561873 C82.3883775,60.5846181 82.4464212,60.5411153 82.6198445,60.5411153 C82.8364467,60.5411153 83.0105779,60.5130489 83.1408223,60.4842809 C83.4296253,60.4267449 83.5166908,60.1832694 83.5598697,59.7671859 C83.6320704,59.1651628 83.6320704,58.0326858 83.6320704,56.6419985 L83.6320704,54.1188342 Z M92.2804434,58.8498374 C92.3094653,59.9682812 92.4977534,60.3408619 92.7865563,60.4411991 C93.0321804,60.5275031 93.3068263,60.5415363 93.5382933,60.5415363 C93.6975596,60.5415363 93.7846252,60.5703043 93.7846252,60.6559066 C93.7846252,60.7709786 93.6536729,60.7997466 93.4512277,60.7997466 C92.5119104,60.7997466 91.9335968,60.7562438 91.658243,60.7562438 C91.5287064,60.7562438 90.8491702,60.7997466 90.0967253,60.7997466 C89.9084372,60.7997466 89.7781927,60.7850118 89.7781927,60.6559066 C89.7781927,60.5703043 89.8652583,60.5415363 90.0096598,60.5415363 C90.1979479,60.5415363 90.4584368,60.5275031 90.660882,60.4699671 C91.0367505,60.3548951 91.0940864,59.9395132 91.1089512,58.6919642 L91.2384878,50.2482047 C91.2384878,49.961928 91.2823745,49.760552 91.426776,49.760552 C91.5867501,49.760552 91.7162867,49.9471932 91.9626186,50.2054035 C92.1360419,50.3913431 94.333917,52.685065 96.4454344,54.7640794 C97.4286384,55.7386832 99.3808894,57.8029628 99.6272213,58.0324051 L99.699422,58.0324051 L99.5550206,51.5960909 C99.5408636,50.7211226 99.4099113,50.4488791 99.0630646,50.3057407 C98.8457546,50.2194367 98.498908,50.2194367 98.2964628,50.2194367 C98.1230395,50.2194367 98.0657036,50.1766355 98.0657036,50.0903315 C98.0657036,49.9759612 98.2242621,49.961928 98.4415721,49.961928 C99.1933091,49.961928 99.8877102,50.0047292 100.191378,50.0047292 C100.349936,50.0047292 100.899936,49.961928 101.608494,49.961928 C101.796075,49.961928 101.941184,49.9759612 101.941184,50.0903315 C101.941184,50.1766355 101.854118,50.2194367 101.680695,50.2194367 C101.536293,50.2194367 101.420206,50.2194367 101.246783,50.2622379 C100.8426,50.3773099 100.726513,50.6783214 100.711648,51.4810189 L100.553089,60.5275031 C100.553089,60.8425478 100.494338,60.971653 100.364801,60.971653 C100.205535,60.971653 100.032112,60.8137798 99.8735532,60.6559066 C98.9618421,59.7956732 97.1108136,57.9180348 95.6066318,56.4410435 C94.0302493,54.8931846 92.4248449,53.1439497 92.164356,52.8717062 L92.1211771,52.8717062 L92.2804434,58.8498374 Z M104.965757,60.627279 C104.734998,60.5269418 104.691111,60.4553726 104.691111,60.1403279 C104.691111,59.3516636 104.749155,58.4914302 104.76402,58.2619878 C104.778177,58.0472803 104.821356,57.8894071 104.937443,57.8894071 C105.067688,57.8894071 105.081845,58.0185123 105.081845,58.1328827 C105.081845,58.3195238 105.139888,58.6205354 105.212089,58.8640109 C105.529914,59.9249187 106.383581,60.3122342 107.280428,60.3122342 C108.581456,60.3122342 109.218522,59.437266 109.218522,58.6780714 C109.218522,57.9750095 109.001212,57.3154504 107.800698,56.3843494 L107.135318,55.8679287 C105.544071,54.6351146 104.994779,53.6317428 104.994779,52.4704978 C104.994779,50.8931693 106.325538,49.7606923 108.335832,49.7606923 C109.275857,49.7606923 109.883193,49.9038307 110.259769,50.0041679 C110.389306,50.0329359 110.462215,50.075737 110.462215,50.1760742 C110.462215,50.3627154 110.404171,50.7787989 110.404171,51.8972427 C110.404171,52.2122874 110.360284,52.3266578 110.244905,52.3266578 C110.143682,52.3266578 110.100503,52.2410554 110.100503,52.0691491 C110.100503,51.9400439 110.027594,51.4951924 109.724635,51.1226116 C109.507325,50.8503681 109.087569,50.4202514 108.147544,50.4202514 C107.077275,50.4202514 106.42676,51.0370093 106.42676,51.8972427 C106.42676,52.5561002 106.75945,53.0577861 107.959256,53.9615223 L108.364854,54.2625339 C110.11466,55.5669172 110.736153,56.5562558 110.736153,57.9181751 C110.736153,58.7496406 110.418328,59.7382775 109.37708,60.4125714 C108.654365,60.8714561 107.843876,60.9998597 107.077275,60.9998597 C106.23918,60.9998597 105.587958,60.8995225 104.965757,60.627279 Z M117.330273,50.7643448 L115.174869,50.8218808 C114.336775,50.8506488 113.98922,50.922218 113.772618,51.2372627 C113.628216,51.4519702 113.555308,51.6245782 113.526286,51.7389486 C113.497972,51.8540206 113.454085,51.9108549 113.36702,51.9108549 C113.266505,51.9108549 113.237483,51.8392857 113.237483,51.6821142 C113.237483,51.4519702 113.511421,50.1482885 113.540443,50.0332165 C113.58433,49.8465753 113.628216,49.760973 113.714574,49.760973 C113.830662,49.760973 113.975063,49.9041113 114.336775,49.9328793 C114.755822,49.9756805 115.305822,50.0044485 115.782205,50.0044485 L121.509421,50.0044485 C121.973063,50.0044485 122.290888,49.9616473 122.50749,49.9328793 C122.7248,49.8893765 122.84018,49.8613102 122.898224,49.8613102 C122.999446,49.8613102 123.013603,49.9469125 123.013603,50.1623217 C123.013603,50.4633332 122.970424,51.4519702 122.970424,51.8252526 C122.955559,51.9683909 122.927245,52.0546949 122.84018,52.0546949 C122.7248,52.0546949 122.695778,51.9831257 122.681621,51.7677166 L122.666756,51.610545 C122.637735,51.2372627 122.247001,50.8359139 120.960129,50.8071459 L119.138123,50.7643448 L119.138123,56.6421388 C119.138123,57.9605553 119.138123,59.0937339 119.210324,59.7097902 C119.253502,60.1111389 119.340568,60.4268853 119.77448,60.4844213 C119.976218,60.5131893 120.29475,60.5412556 120.51206,60.5412556 C120.671327,60.5412556 120.742819,60.5847584 120.742819,60.6563276 C120.742819,60.7566648 120.62744,60.799466 120.468881,60.799466 C119.513991,60.799466 118.602988,60.7566648 118.198098,60.7566648 C117.865408,60.7566648 116.954405,60.799466 116.375383,60.799466 C116.187803,60.799466 116.08658,60.7566648 116.08658,60.6563276 C116.08658,60.5847584 116.143916,60.5412556 116.31734,60.5412556 C116.53465,60.5412556 116.708073,60.5131893 116.838317,60.4844213 C117.127828,60.4268853 117.214186,60.1111389 117.257365,59.695757 C117.330273,59.0937339 117.330273,57.9605553 117.330273,56.6421388 L117.330273,50.7643448 Z M127.018974,54.1188342 C127.018974,51.9401842 127.018974,51.5381339 126.989952,51.0792491 C126.96093,50.5922981 126.816529,50.3481209 126.498704,50.2765517 C126.339438,50.2337505 126.151149,50.2197174 125.977726,50.2197174 C125.833325,50.2197174 125.746259,50.1909494 125.746259,50.0758774 C125.746259,49.990275 125.861639,49.961507 126.093106,49.961507 C126.643105,49.961507 127.554109,50.0043082 127.973864,50.0043082 C128.334867,50.0043082 129.187827,49.961507 129.738535,49.961507 C129.925407,49.961507 130.042202,49.990275 130.042202,50.0758774 C130.042202,50.1909494 129.954429,50.2197174 129.810027,50.2197174 C129.665626,50.2197174 129.550246,50.2337505 129.376115,50.2625185 C128.98609,50.3340877 128.870002,50.5782649 128.84098,51.0792491 C128.811959,51.5381339 128.811959,51.9401842 128.811959,54.1188342 L128.811959,56.6419985 C128.811959,58.0326858 128.811959,59.1651628 128.870002,59.7819207 C128.913889,60.1685346 129.014404,60.4267449 129.449024,60.4842809 C129.651469,60.5130489 129.969294,60.5411153 130.186604,60.5411153 C130.345162,60.5411153 130.418071,60.5846181 130.418071,60.6561873 C130.418071,60.7565245 130.301983,60.7993256 130.142717,60.7993256 C129.187827,60.7993256 128.276824,60.7565245 127.887506,60.7565245 C127.554109,60.7565245 126.643105,60.7993256 126.064084,60.7993256 C125.876503,60.7993256 125.775281,60.7565245 125.775281,60.6561873 C125.775281,60.5846181 125.833325,60.5411153 126.006748,60.5411153 C126.22335,60.5411153 126.397481,60.5130489 126.527726,60.4842809 C126.816529,60.4267449 126.903594,60.1832694 126.946773,59.7671859 C127.018974,59.1651628 127.018974,58.0326858 127.018974,56.6419985 L127.018974,54.1188342 Z M136.714611,50.7643448 L134.559207,50.8218808 C133.721112,50.8506488 133.373558,50.922218 133.156956,51.2372627 C133.012554,51.4519702 132.939646,51.6245782 132.910624,51.7389486 C132.88231,51.8540206 132.838423,51.9108549 132.751358,51.9108549 C132.650843,51.9108549 132.621821,51.8392857 132.621821,51.6821142 C132.621821,51.4519702 132.895759,50.1482885 132.924781,50.0332165 C132.968668,49.8465753 133.012554,49.760973 133.098912,49.760973 C133.215,49.760973 133.359401,49.9041113 133.721112,49.9328793 C134.14016,49.9756805 134.69016,50.0044485 135.166543,50.0044485 L140.893759,50.0044485 C141.357401,50.0044485 141.675226,49.9616473 141.891828,49.9328793 C142.109138,49.8893765 142.224518,49.8613102 142.282561,49.8613102 C142.383784,49.8613102 142.397941,49.9469125 142.397941,50.1623217 C142.397941,50.4633332 142.354762,51.4519702 142.354762,51.8252526 C142.339897,51.9683909 142.311583,52.0546949 142.224518,52.0546949 C142.109138,52.0546949 142.080116,51.9831257 142.065959,51.7677166 L142.051094,51.610545 C142.022073,51.2372627 141.631339,50.8359139 140.344467,50.8071459 L138.522461,50.7643448 L138.522461,56.6421388 C138.522461,57.9605553 138.522461,59.0937339 138.594662,59.7097902 C138.63784,60.1111389 138.724906,60.4268853 139.158818,60.4844213 C139.360556,60.5131893 139.679088,60.5412556 139.896398,60.5412556 C140.055665,60.5412556 140.127157,60.5847584 140.127157,60.6563276 C140.127157,60.7566648 140.011778,60.799466 139.853219,60.799466 C138.898329,60.799466 137.987326,60.7566648 137.582436,60.7566648 C137.249746,60.7566648 136.338743,60.799466 135.759721,60.799466 C135.572141,60.799466 135.470918,60.7566648 135.470918,60.6563276 C135.470918,60.5847584 135.528254,60.5412556 135.701678,60.5412556 C135.918988,60.5412556 136.092411,60.5131893 136.222655,60.4844213 C136.512166,60.4268853 136.598524,60.1111389 136.641703,59.695757 C136.714611,59.0937339 136.714611,57.9605553 136.714611,56.6421388 L136.714611,50.7643448 Z M146.193151,54.1188342 C146.193151,51.9401842 146.193151,51.5381339 146.164129,51.0792491 C146.135107,50.5922981 146.01902,50.3628557 145.541929,50.2625185 C145.426549,50.2337505 145.180217,50.2197174 144.977772,50.2197174 C144.819214,50.2197174 144.732148,50.1909494 144.732148,50.0906122 C144.732148,49.990275 144.833371,49.961507 145.050681,49.961507 C145.817283,49.961507 146.728286,50.0043082 147.16149,50.0043082 C147.508337,50.0043082 148.420048,49.961507 148.941026,49.961507 C149.157628,49.961507 149.258851,49.990275 149.258851,50.0906122 C149.258851,50.1909494 149.171785,50.2197174 149.027383,50.2197174 C148.868117,50.2197174 148.781759,50.2337505 148.608336,50.2625185 C148.217603,50.3340877 148.101515,50.5782649 148.072493,51.0792491 C148.044179,51.5381339 148.044179,51.9401842 148.044179,54.1188342 L148.044179,56.1255778 C148.044179,58.2045922 148.463227,59.0788588 149.171785,59.6528155 C149.823007,60.1832694 150.487679,60.2408054 150.980342,60.2408054 C151.615992,60.2408054 152.397459,60.0394294 152.975772,59.4661743 C153.771396,58.6782117 153.814575,57.3878616 153.814575,55.9108702 L153.814575,54.1188342 C153.814575,51.9401842 153.814575,51.5381339 153.786261,51.0792491 C153.757239,50.5922981 153.640444,50.3628557 153.16406,50.2625185 C153.048681,50.2337505 152.802349,50.2197174 152.643083,50.2197174 C152.484524,50.2197174 152.397459,50.1909494 152.397459,50.0906122 C152.397459,49.990275 152.497973,49.961507 152.700419,49.961507 C153.437999,49.961507 154.349002,50.0043082 154.363867,50.0043082 C154.53729,50.0043082 155.449001,49.961507 156.013158,49.961507 C156.214895,49.961507 156.316826,49.990275 156.316826,50.0906122 C156.316826,50.1909494 156.22976,50.2197174 156.056337,50.2197174 C155.89707,50.2197174 155.810713,50.2337505 155.637289,50.2625185 C155.246556,50.3340877 155.130468,50.5782649 155.101447,51.0792491 C155.073133,51.5381339 155.073133,51.9401842 155.073133,54.1188342 L155.073133,55.6533615 C155.073133,57.2440215 154.913158,58.9357204 153.699195,59.9678602 C152.672105,60.8428285 151.630857,61 150.690832,61 C149.92423,61 148.536135,60.9571988 147.480023,60.0106614 C146.742443,59.351804 146.193151,58.2908962 146.193151,56.2118818 L146.193151,54.1188342 Z M162.669357,50.7643448 L160.513953,50.8218808 C159.675858,50.8506488 159.328304,50.922218 159.111702,51.2372627 C158.9673,51.4519702 158.894391,51.6245782 158.86537,51.7389486 C158.836348,51.8540206 158.793169,51.9108549 158.706103,51.9108549 C158.605589,51.9108549 158.576567,51.8392857 158.576567,51.6821142 C158.576567,51.4519702 158.850505,50.1482885 158.879527,50.0332165 C158.923413,49.8465753 158.9673,49.760973 159.053658,49.760973 C159.169745,49.760973 159.314147,49.9041113 159.675858,49.9328793 C160.094906,49.9756805 160.644905,50.0044485 161.121288,50.0044485 L166.848505,50.0044485 C167.312147,50.0044485 167.629972,49.9616473 167.846574,49.9328793 C168.063884,49.8893765 168.179263,49.8613102 168.237307,49.8613102 C168.33853,49.8613102 168.352687,49.9469125 168.352687,50.1623217 C168.352687,50.4633332 168.309508,51.4519702 168.309508,51.8252526 C168.294643,51.9683909 168.266329,52.0546949 168.179263,52.0546949 C168.063884,52.0546949 168.034862,51.9831257 168.020705,51.7677166 L168.00584,51.610545 C167.976818,51.2372627 167.586085,50.8359139 166.299213,50.8071459 L164.477207,50.7643448 L164.477207,56.6421388 C164.477207,57.9605553 164.477207,59.0937339 164.549407,59.7097902 C164.592586,60.1111389 164.679652,60.4268853 165.113564,60.4844213 C165.316009,60.5131893 165.633834,60.5412556 165.851144,60.5412556 C166.01041,60.5412556 166.081903,60.5847584 166.081903,60.6563276 C166.081903,60.7566648 165.966523,60.799466 165.807965,60.799466 C164.853075,60.799466 163.942072,60.7566648 163.537181,60.7566648 C163.204492,60.7566648 162.293488,60.799466 161.714467,60.799466 C161.526887,60.799466 161.425664,60.7566648 161.425664,60.6563276 C161.425664,60.5847584 161.483,60.5412556 161.656423,60.5412556 C161.873733,60.5412556 162.047157,60.5131893 162.177401,60.4844213 C162.466912,60.4268853 162.55327,60.1111389 162.596448,59.695757 C162.669357,59.0937339 162.669357,57.9605553 162.669357,56.6421388 L162.669357,50.7643448 Z M172.454113,54.1188342 C172.454113,51.9401842 172.454113,51.5381339 172.425091,51.0792491 C172.396069,50.5922981 172.280689,50.3628557 171.803598,50.2625185 C171.687511,50.2337505 171.441887,50.2197174 171.239442,50.2197174 C171.080883,50.2197174 170.993818,50.1909494 170.993818,50.0906122 C170.993818,49.990275 171.09504,49.961507 171.311642,49.961507 C171.702376,49.961507 172.121423,49.9755402 172.483135,49.9755402 C172.859003,49.990275 173.191693,50.0043082 173.394138,50.0043082 C173.857072,50.0043082 176.735191,50.0043082 177.010545,49.990275 C177.284483,49.961507 177.51595,49.932739 177.63133,49.903971 C177.704238,49.8899378 177.790596,49.8471367 177.863504,49.8471367 C177.935705,49.8471367 177.949862,49.903971 177.949862,49.9755402 C177.949862,50.0758774 177.877661,50.2484854 177.834483,50.9073428 C177.819618,51.0511828 177.790596,51.6819739 177.762282,51.8538802 C177.748125,51.9254494 177.718395,52.0117534 177.617173,52.0117534 C177.51595,52.0117534 177.486928,51.9401842 177.486928,51.8103774 C177.486928,51.7107419 177.472771,51.4665647 177.399863,51.2946583 C177.299348,51.036448 177.154946,50.8645416 176.431523,50.7789393 C176.185191,50.7501713 174.666853,50.7214033 174.37805,50.7214033 C174.305141,50.7214033 174.276119,50.7642044 174.276119,50.8645416 L174.276119,54.4914149 C174.276119,54.5917521 174.290984,54.6492881 174.37805,54.6492881 C174.695875,54.6492881 176.359323,54.6492881 176.691304,54.6205201 C177.038859,54.5917521 177.255461,54.5489509 177.386413,54.4058125 C177.486928,54.2907405 177.544972,54.2191714 177.617173,54.2191714 C177.675216,54.2191714 177.718395,54.2479394 177.718395,54.3342434 C177.718395,54.4198457 177.660351,54.6492881 177.602308,55.3804163 C177.588151,55.6673947 177.544972,56.2406498 177.544972,56.3409869 C177.544972,56.4560589 177.544972,56.6132305 177.414727,56.6132305 C177.313505,56.6132305 177.284483,56.5563961 177.284483,56.484827 C177.270326,56.3409869 177.270326,56.1543458 177.226439,55.9684062 C177.154946,55.6814279 176.951793,55.4667203 176.417366,55.4091843 C176.142013,55.3804163 174.710739,55.3663832 174.363185,55.3663832 C174.290984,55.3663832 174.276119,55.4232175 174.276119,55.5095215 L174.276119,56.6419985 C174.276119,57.1296512 174.261962,58.4480677 174.276119,58.8641512 C174.305141,59.8534899 174.536608,60.0681974 176.011768,60.0681974 C176.388345,60.0681974 176.99568,60.0681974 177.371549,59.896291 C177.748125,59.7243847 177.921548,59.4233731 178.022063,58.8353832 C178.051085,58.6782117 178.080107,58.6206757 178.181329,58.6206757 C178.297417,58.6206757 178.297417,58.7350461 178.297417,58.8781844 C178.297417,59.207964 178.181329,60.1832694 178.109129,60.4695461 C178.007906,60.8428285 177.877661,60.8428285 177.32837,60.8428285 C176.243943,60.8428285 175.447612,60.8140605 174.826119,60.7993256 C174.204626,60.7705576 173.755849,60.7565245 173.322645,60.7565245 C173.162671,60.7565245 172.844846,60.7565245 172.497999,60.7705576 C172.16531,60.7705576 171.789441,60.7993256 171.499223,60.7993256 C171.311642,60.7993256 171.21042,60.7565245 171.21042,60.6561873 C171.21042,60.5846181 171.268464,60.5411153 171.441887,60.5411153 C171.658489,60.5411153 171.83262,60.5130489 171.962865,60.4842809 C172.251668,60.4267449 172.323868,60.1117002 172.381912,59.6956167 C172.454113,59.0935936 172.454113,57.9611166 172.454113,56.6419985 L172.454113,54.1188342 Z M108.247139,11.8918272 C108.247139,8.68033583 106.381245,6.68762542 104.009947,6.68762542 C102.346499,6.68762542 100.451584,7.60539486 100.451584,11.1747321 C100.451584,14.1567811 102.115032,16.5220723 104.891928,16.5220723 C105.903446,16.5220723 108.247139,16.0344195 108.247139,11.8918272 Z M115.85929,11.490268 C115.85929,11.6481412 115.888312,11.7056772 115.989534,11.7484784 C116.293202,11.8488155 116.727114,11.8916167 117.088118,11.8916167 C117.667139,11.8916167 117.85472,11.8340807 118.115916,11.6481412 C118.549121,11.3323948 118.968876,10.6728357 118.968876,9.49755759 C118.968876,7.46204601 117.609803,6.87405611 116.756136,6.87405611 C116.394424,6.87405611 116.133936,6.88808928 115.989534,6.93159211 C115.888312,6.95965846 115.85929,7.01719446 115.85929,7.13226647 L115.85929,11.490268 Z M139.118117,11.9346284 C139.118117,13.4544209 139.132982,14.5581299 139.147139,14.8303734 C139.162004,15.1889209 139.191025,15.762176 139.306405,15.9200492 C139.493985,16.1922927 140.058142,16.4933043 141.200612,16.4933043 C142.675772,16.4933043 143.659684,16.2070276 144.527509,15.4611645 C145.452669,14.6725002 145.74218,13.3681169 145.74218,11.8918272 C145.74218,10.0710232 144.975578,8.89504336 144.353377,8.30775511 C143.023327,7.04617296 141.374743,6.87426661 140.24643,6.87426661 C139.957627,6.87426661 139.422492,6.91706778 139.306405,6.97460379 C139.176161,7.03213979 139.132982,7.10370897 139.132982,7.26088049 C139.118117,7.74853321 139.118117,8.99608219 139.118117,10.1285592 L139.118117,11.9346284 Z M85.3387682,33.3708597 C85.3387682,33.5287329 85.3677901,33.5862689 85.4690127,33.6290701 C85.7726804,33.7294073 86.2065926,33.7722085 86.5675963,33.7722085 C87.1466178,33.7722085 87.3341981,33.7146724 87.5953948,33.5287329 C88.0285992,33.2129866 88.4483544,32.5534275 88.4483544,31.3781493 C88.4483544,29.3426378 87.0892819,28.7546479 86.2356145,28.7546479 C85.873903,28.7546479 85.6134141,28.768681 85.4690127,28.8121839 C85.3677901,28.8402502 85.3387682,28.8977862 85.3387682,29.0128582 L85.3387682,33.3708597 Z M124.4109,33.7724189 C124.4109,30.5609276 122.545006,28.5682172 120.173708,28.5682172 C118.51026,28.5682172 116.615345,29.4859866 116.615345,33.0553239 C116.615345,36.0373729 118.278793,38.402664 121.055689,38.402664 C122.067207,38.402664 124.4109,37.9150113 124.4109,33.7724189 Z M145.911851,33.3708597 C145.911851,33.5287329 145.940873,33.5862689 146.042096,33.6290701 C146.345764,33.7294073 146.779676,33.7722085 147.140679,33.7722085 C147.719701,33.7722085 147.907281,33.7146724 148.168478,33.5287329 C148.601682,33.2129866 149.021438,32.5534275 149.021438,31.3781493 C149.021438,29.3426378 147.662365,28.7546479 146.808698,28.7546479 C146.446986,28.7546479 146.186497,28.768681 146.042096,28.8121839 C145.940873,28.8402502 145.911851,28.8977862 145.911851,29.0128582 L145.911851,33.3708597 Z" id="Combined-Shape" fill="#333333"></path>
                </g>
            </g>
        </g>
    </g>
</svg>